<svg width="520" height="381" viewBox="0 0 520 381" fill="none" xmlns="http://www.w3.org/2000/svg">
<g clip-path="url(#clip0_520_189)">
<path d="M13.5512 369.55L18.7046 371.198L27.5137 352.107L19.9082 349.673L13.5512 369.55Z" fill="#FFB6B6"/>
<path d="M10.6393 374.125L27.2551 379.439L27.3223 379.229C27.8708 377.514 27.7156 375.651 26.8908 374.05C26.0659 372.449 24.6389 371.242 22.9238 370.693L20.6249 367.42L14.2255 367.911L12.775 367.447L10.6393 374.125Z" fill="black"/>
<path d="M62.4087 374.69H67.8191L70.3926 353.821H62.4081L62.4087 374.69Z" fill="#FFB6B6"/>
<path d="M61.0289 379.934L78.4739 379.933V379.713C78.4737 377.912 77.7583 376.185 76.485 374.912C75.2116 373.638 73.4846 372.923 71.6838 372.923L68.4968 370.505L62.5514 372.923L61.0286 372.923L61.0289 379.934Z" fill="black"/>
<path d="M88.2496 159.035C88.6554 159.541 88.9454 160.13 89.099 160.76C89.2526 161.391 89.2661 162.047 89.1386 162.683C89.011 163.319 88.7456 163.92 88.361 164.442C87.9763 164.965 87.4818 165.396 86.9122 165.707L89.5073 181.263L82.0166 177.938L80.7005 163.676C80.2421 162.685 80.1632 161.559 80.479 160.514C80.7947 159.468 81.483 158.574 82.4136 158.002C83.3441 157.43 84.4521 157.219 85.5278 157.41C86.6034 157.6 87.5718 158.178 88.2496 159.035Z" fill="#FFB6B6"/>
<path d="M19.9561 288.075C19.9561 288.075 18.6942 271.642 23.1667 268.59C27.6388 265.538 64.513 264.002 64.513 264.002L66.8026 267.013C66.8026 267.013 67.0099 268.419 70.4825 279.875L71.897 343.82C72.0373 350.054 73.1243 357.887 70.5205 359.488L69.2549 365.816H62.2942L58.4487 355.177C56.7914 352.501 56.0854 349.343 56.445 346.216L54.3451 336.823C54.4919 336.676 54.5953 336.49 54.6439 336.288C54.8812 334.888 54.5667 333.451 53.7664 332.279C53.581 332.005 53.3766 331.744 53.1546 331.499L45.4614 297.086L35.0843 337.341L28.6798 351.639C29.3095 353.138 28.8911 354.496 27.7436 355.756C28.17 356.928 26.3269 357.751 25.5353 359.267L23.0613 363.918L16.1006 360.121L15.4679 356.324C15.0464 355.198 16.1797 354.452 17.0149 352.114C15.4567 350.459 15.5414 348.847 17.0433 347.273L19.6748 335.926L19.7053 330.724L19.738 325.165L19.9561 288.075Z" fill="#2C2C2C"/>
<path d="M49.0599 190.377C42.3817 190.377 36.968 184.963 36.968 178.285C36.968 171.607 42.3817 166.193 49.0599 166.193C55.7381 166.193 61.1519 171.607 61.1519 178.285C61.1519 184.963 55.7381 190.377 49.0599 190.377Z" fill="#FFB6B6"/>
<path d="M36.895 180.178L37.0947 179.779C37.4034 179.161 39.9603 174.027 40.2812 172.707L43.4991 173.085L51.8785 173.086L50.7142 171.34L53.7925 171.741C54.9179 171.878 55.9938 172.284 56.9294 172.924C57.5034 173.305 57.9887 173.805 58.3523 174.391C59.4519 176.274 61.1319 179.354 61.1488 179.385L61.3095 179.679L62.7055 177.331C62.7238 177.24 64.454 168.216 58.6637 165.155C57.8384 163.543 56.5611 162.206 54.9879 161.308C53.4148 160.41 51.614 159.99 49.806 160.1C49.1448 159.346 48.2135 158.883 47.2136 158.811C45.84 158.739 44.4142 159.461 42.9824 160.965C41.0805 162.962 38.4756 165.697 36.9001 168.733L36.4655 169.353C35.848 170.241 35.5422 171.308 35.596 172.387C35.2614 174.111 35.3803 175.891 35.9412 177.555L36.895 180.178Z" fill="black"/>
<path d="M20.0123 201.296L33.1556 197.616L39.8465 192.652L52.9899 194.749L53.0471 194.823C55.3483 197.813 58.8961 200.766 62.6667 200.884C63.6369 200.915 64.6007 201.053 65.5407 201.296L66.8025 224.368V244.995C66.6055 245.062 66.4289 245.178 66.2898 245.332C66.1507 245.487 66.0537 245.674 66.0081 245.877C65.6377 247.98 65.6728 250.134 66.1113 252.224C66.2666 252.953 66.4983 253.663 66.8025 254.343C66.4355 255.103 66.2449 255.935 66.2449 256.779C66.2449 257.622 66.4355 258.454 66.8025 259.214C67.9259 260.285 67.7807 261.452 66.8025 262.682V267.013C45.4693 284.812 23.2216 269.571 23.2216 269.571L23.9354 235.691L20.0123 201.296Z" fill="#B3193E"/>
<path d="M62.5927 204.465L65.5407 201.296L81.7862 199.456L80.2617 174.505L89.1188 168.186L93.1298 189.838C94.5091 191.031 94.7649 192.206 93.7827 193.362C94.887 195.571 95.1709 197.366 94.7955 198.83L95.626 203.313L65.5664 224.367L62.5927 204.465Z" fill="#B3193E"/>
<path d="M22.4107 286.051C22.7604 285.504 22.986 284.888 23.0717 284.245C23.1574 283.602 23.1011 282.948 22.9066 282.329C22.7122 281.71 22.3844 281.141 21.9463 280.662C21.5082 280.184 20.9706 279.807 20.3712 279.559L21.2971 263.815L14.2024 267.917L14.4108 282.239C14.0604 283.273 14.1018 284.401 14.5269 285.407C14.9521 286.413 15.7315 287.228 16.7176 287.698C17.7037 288.168 18.8279 288.26 19.8771 287.956C20.9264 287.653 21.8279 286.975 22.4107 286.051Z" fill="#FFB6B6"/>
<path d="M24.9499 205.233L20.0121 201.296C20.0121 201.296 14.9631 204.081 13.4267 209.074C11.8902 214.068 9.20151 242.492 9.20151 242.492L8.78701 253.075C8.25587 254.754 8.39492 256.251 9.6608 257.444C7.75811 259.412 8.04206 261.051 10.6406 262.343L13.3356 278.982L21.7956 277.226L20.7248 244.412L27.6387 223.286L24.9499 205.233Z" fill="#B3193E"/>
<path d="M520 74.8861H518.269V27.453C518.269 23.8478 517.559 20.278 516.179 16.9472C514.799 13.6165 512.777 10.5901 510.228 8.04081C507.679 5.49156 504.652 3.46938 501.321 2.08974C497.991 0.710097 494.421 2.49303e-06 490.816 0H390.322C383.041 -1.51043e-05 376.058 2.89233 370.91 8.04075C365.762 13.1892 362.869 20.1719 362.869 27.4529V287.675C362.869 294.956 365.761 301.938 370.91 307.087C376.058 312.235 383.041 315.128 390.322 315.128H490.816C494.421 315.128 497.991 314.418 501.321 313.038C504.652 311.658 507.678 309.636 510.228 307.087C512.777 304.538 514.799 301.511 516.179 298.181C517.558 294.85 518.269 291.28 518.269 287.675V108.65H520V74.8861Z" fill="#2C2C2C"/>
<path d="M390.946 7.14231H404.064C403.46 8.62128 403.23 10.2259 403.393 11.8148C403.556 13.4038 404.107 14.9282 404.998 16.2539C405.889 17.5796 407.092 18.6659 408.502 19.417C409.912 20.1681 411.484 20.5611 413.082 20.5612H470.653C472.25 20.5611 473.823 20.1682 475.233 19.417C476.642 18.6659 477.846 17.5796 478.737 16.2539C479.628 14.9282 480.179 13.4038 480.342 11.8148C480.505 10.2259 480.274 8.62125 479.671 7.14227H491.923C497.361 7.14227 502.575 9.30224 506.42 13.147C510.265 16.9918 512.425 22.2065 512.425 27.6438V287.484C512.425 290.176 511.895 292.842 510.864 295.329C509.834 297.817 508.324 300.077 506.42 301.981C504.516 303.884 502.256 305.394 499.769 306.425C497.281 307.455 494.616 307.985 491.923 307.985H390.946C388.253 307.985 385.588 307.455 383.1 306.425C380.613 305.394 378.353 303.884 376.449 301.981C374.545 300.077 373.035 297.817 372.005 295.329C370.974 292.842 370.444 290.176 370.444 287.484V27.6439C370.444 24.9516 370.974 22.2856 372.005 19.7983C373.035 17.3109 374.545 15.0508 376.449 13.1471C378.353 11.2433 380.613 9.73318 383.1 8.70289C385.588 7.67259 388.253 7.14231 390.946 7.14231Z" fill="white"/>
<path d="M391.917 104.462C391.91 110.365 392.962 116.22 395.024 121.751C395.961 124.284 397.11 126.734 398.459 129.073C402.796 136.641 409.053 142.929 416.6 147.302C424.146 151.674 432.713 153.977 441.435 153.977C450.156 153.977 458.724 151.674 466.27 147.302C473.816 142.929 480.074 136.641 484.411 129.073C484.85 128.312 485.266 127.54 485.659 126.756C489.026 120.079 490.836 112.726 490.954 105.25C491.073 97.7733 489.497 90.3669 486.345 83.5863C483.192 76.8058 478.545 70.8271 472.753 66.0989C466.96 61.3707 460.171 58.0157 452.897 56.2856C445.622 54.5556 438.05 54.4954 430.749 56.1095C423.448 57.7236 416.607 60.9702 410.739 65.6056C404.872 70.2411 400.13 76.1451 396.871 82.8746C393.611 89.6042 391.917 96.9845 391.917 104.462Z" fill="#F1F1F1"/>
<path d="M438.86 112.822C433.632 112.822 429.394 108.583 429.394 103.355C429.394 98.1265 433.632 93.8881 438.86 93.8881C444.089 93.8881 448.327 98.1265 448.327 103.355C448.327 108.583 444.089 112.822 438.86 112.822Z" fill="#B3193E"/>
<path d="M485.659 126.756C481.488 122.249 475.912 115.092 470.683 120.263C468.058 122.702 463.951 128.747 460.019 124.795L429.314 94.0907C428.736 93.52 428.05 93.0706 427.296 92.7689C426.542 92.4672 425.735 92.3193 424.923 92.3338C424.111 92.3484 423.31 92.5251 422.567 92.8536C421.824 93.1821 421.154 93.6558 420.597 94.2468L395.024 121.751C395.961 124.284 397.11 126.734 398.459 129.073H484.411L485.659 126.756Z" fill="#FF6900"/>
<path d="M418.2 205.017C418.539 205.018 418.864 205.153 419.103 205.393C419.342 205.633 419.477 205.958 419.477 206.297C419.477 206.635 419.342 206.96 419.103 207.2C418.864 207.44 418.539 207.575 418.2 207.576H404.776C404.437 207.576 404.112 207.441 403.872 207.201C403.632 206.961 403.497 206.636 403.497 206.297C403.497 205.957 403.632 205.632 403.872 205.392C404.112 205.152 404.437 205.017 404.776 205.017H418.2Z" fill="#FF6900"/>
<path d="M478.68 186.228C479.019 186.228 479.345 186.362 479.585 186.602C479.824 186.842 479.959 187.168 479.959 187.507C479.959 187.846 479.824 188.172 479.585 188.411C479.345 188.651 479.019 188.786 478.68 188.786H404.189C403.85 188.786 403.525 188.651 403.285 188.411C403.045 188.172 402.91 187.846 402.91 187.507C402.91 187.168 403.045 186.842 403.285 186.602C403.525 186.362 403.85 186.228 404.189 186.228H478.68Z" fill="#E5E5E5"/>
<path d="M478.68 195.622C479.019 195.623 479.343 195.758 479.583 195.998C479.822 196.238 479.956 196.563 479.956 196.902C479.956 197.24 479.822 197.565 479.583 197.805C479.343 198.045 479.019 198.18 478.68 198.181H404.189C404.021 198.181 403.854 198.148 403.699 198.084C403.543 198.02 403.402 197.926 403.283 197.807C403.164 197.688 403.069 197.547 403.005 197.392C402.94 197.236 402.907 197.07 402.907 196.902C402.907 196.733 402.94 196.567 403.005 196.411C403.069 196.256 403.164 196.115 403.283 195.996C403.402 195.877 403.543 195.783 403.699 195.719C403.854 195.655 404.021 195.622 404.189 195.622H478.68Z" fill="#E5E5E5"/>
<path d="M418.2 265.301C418.54 265.301 418.865 265.436 419.105 265.676C419.345 265.915 419.48 266.241 419.48 266.58C419.48 266.919 419.345 267.245 419.105 267.485C418.865 267.725 418.54 267.859 418.2 267.859H404.776C404.437 267.859 404.112 267.725 403.872 267.485C403.632 267.245 403.497 266.919 403.497 266.58C403.497 266.241 403.632 265.915 403.872 265.676C404.112 265.436 404.437 265.301 404.776 265.301H418.2Z" fill="#FF6900"/>
<path d="M478.68 246.511C479.019 246.511 479.345 246.646 479.585 246.886C479.824 247.126 479.959 247.451 479.959 247.79C479.959 248.13 479.824 248.455 479.585 248.695C479.345 248.935 479.019 249.07 478.68 249.07H404.189C404.021 249.07 403.854 249.037 403.699 248.973C403.543 248.909 403.402 248.815 403.283 248.696C403.164 248.577 403.069 248.436 403.005 248.281C402.94 248.125 402.907 247.959 402.907 247.79C402.907 247.622 402.94 247.456 403.005 247.3C403.069 247.145 403.164 247.004 403.283 246.885C403.402 246.766 403.543 246.672 403.699 246.608C403.854 246.544 404.021 246.511 404.189 246.511H478.68Z" fill="#E5E5E5"/>
<path d="M478.68 255.906C479.019 255.906 479.345 256.041 479.585 256.281C479.824 256.521 479.959 256.846 479.959 257.185C479.959 257.525 479.824 257.85 479.585 258.09C479.345 258.33 479.019 258.465 478.68 258.465H404.189C403.85 258.465 403.525 258.33 403.285 258.09C403.045 257.85 402.91 257.525 402.91 257.185C402.91 256.846 403.045 256.521 403.285 256.281C403.525 256.041 403.85 255.906 404.189 255.906H478.68Z" fill="#E5E5E5"/>
<path d="M95.3481 144.204L105.569 139.583C105.62 140.948 106.006 142.279 106.693 143.46C107.38 144.64 108.347 145.634 109.508 146.353C110.669 147.072 111.99 147.495 113.353 147.583C114.716 147.672 116.079 147.424 117.324 146.861L162.183 126.577C163.428 126.014 164.515 125.154 165.349 124.072C166.182 122.99 166.737 121.72 166.964 120.373C167.192 119.026 167.084 117.644 166.651 116.348C166.218 115.053 165.473 113.884 164.482 112.944L174.029 108.627C178.266 106.711 183.09 106.557 187.44 108.198C191.791 109.84 195.311 113.142 197.227 117.379L288.776 319.844C289.724 321.942 290.25 324.206 290.324 326.507C290.398 328.808 290.017 331.101 289.205 333.255C288.392 335.41 287.163 337.382 285.588 339.062C284.013 340.741 282.122 342.093 280.024 343.042L201.344 378.619C197.107 380.535 192.283 380.689 187.932 379.048C183.582 377.407 180.061 374.104 178.146 369.868L86.5967 167.402C85.6482 165.304 85.122 163.04 85.0485 160.739C84.9749 158.438 85.3553 156.145 86.168 153.991C86.9806 151.837 88.2096 149.864 89.7847 148.185C91.3599 146.505 93.2503 145.153 95.3481 144.204Z" fill="#E4E4E4"/>
<path d="M186.408 240.608C193.298 237.479 199.242 232.591 203.645 226.437C208.047 220.282 210.752 213.077 211.488 205.546C211.561 204.799 211.615 204.032 211.646 203.266C211.946 196.55 210.649 189.859 207.86 183.743C205.267 178.015 201.448 172.925 196.674 168.834C191.899 164.742 186.285 161.748 180.227 160.063C174.17 158.377 167.816 158.042 161.614 159.08C155.413 160.118 149.514 162.504 144.335 166.069C139.156 169.635 134.823 174.294 131.641 179.717C128.458 185.14 126.505 191.196 125.918 197.456C125.331 203.716 126.125 210.029 128.243 215.949C130.362 221.87 133.754 227.253 138.18 231.719C139.827 233.387 141.612 234.914 143.515 236.283C149.656 240.704 156.853 243.432 164.382 244.191C171.911 244.95 179.508 243.714 186.408 240.608ZM151.515 163.44C161.597 158.895 173.07 158.536 183.417 162.44C193.764 166.344 202.14 174.192 206.707 184.264C209.413 190.201 210.673 196.694 210.382 203.212C210.351 203.955 210.299 204.699 210.228 205.423C209.526 212.737 206.905 219.735 202.631 225.711C198.356 231.687 192.58 236.428 185.885 239.455C179.191 242.482 171.816 243.688 164.506 242.951C157.196 242.213 150.21 239.559 144.255 235.256C142.409 233.928 140.677 232.447 139.079 230.829C134.341 226.046 130.83 220.189 128.846 213.755C126.862 207.322 126.464 200.505 127.686 193.884C128.907 187.264 131.713 181.037 135.862 175.736C140.011 170.435 145.382 166.216 151.515 163.44Z" fill="white"/>
<path d="M182.171 161.28L183.353 161.733L153.282 240.235L152.1 239.783L182.171 161.28Z" fill="white"/>
<path d="M130.375 185.766L208.879 215.831L208.427 217.013L129.923 186.948L130.375 185.766Z" fill="white"/>
<path d="M169.308 301.942L243.569 268.364C244.12 268.114 244.549 267.656 244.762 267.091C244.975 266.525 244.955 265.898 244.707 265.347L237.721 249.898C237.472 249.347 237.014 248.918 236.448 248.705C235.883 248.492 235.256 248.511 234.705 248.76L160.444 282.339C159.893 282.588 159.464 283.046 159.251 283.611C159.038 284.177 159.057 284.804 159.306 285.355L166.292 300.804C166.541 301.355 166.999 301.784 167.564 301.997C168.13 302.21 168.757 302.191 169.308 301.942ZM235.226 249.913C235.471 249.802 235.75 249.794 236.002 249.888C236.253 249.983 236.457 250.174 236.568 250.419L243.554 265.869C243.664 266.114 243.673 266.393 243.578 266.644C243.483 266.896 243.293 267.099 243.048 267.21L168.786 300.789C168.541 300.9 168.262 300.908 168.011 300.814C167.759 300.719 167.556 300.528 167.445 300.283L160.459 284.833C160.348 284.588 160.34 284.309 160.434 284.058C160.529 283.806 160.72 283.603 160.965 283.492L235.226 249.913Z" fill="white"/>
<path d="M187.297 341.727L261.559 308.148C262.109 307.898 262.538 307.44 262.751 306.875C262.964 306.31 262.945 305.683 262.696 305.132L255.71 289.682C255.461 289.132 255.003 288.703 254.438 288.489C253.872 288.276 253.245 288.296 252.694 288.544L178.433 322.123C177.882 322.373 177.453 322.83 177.24 323.396C177.027 323.961 177.047 324.588 177.295 325.139L184.281 340.589C184.53 341.139 184.988 341.568 185.554 341.781C186.119 341.995 186.746 341.975 187.297 341.727ZM253.216 289.697C253.461 289.587 253.74 289.578 253.991 289.673C254.243 289.768 254.446 289.959 254.557 290.203L261.543 305.653C261.654 305.898 261.662 306.177 261.568 306.428C261.473 306.68 261.282 306.884 261.037 306.995L186.776 340.574C186.531 340.684 186.252 340.693 186 340.598C185.749 340.503 185.545 340.312 185.434 340.067L178.448 324.618C178.338 324.373 178.329 324.094 178.424 323.842C178.519 323.591 178.709 323.387 178.954 323.276L253.216 289.697Z" fill="white"/>
<path d="M215.999 241.061C217.526 233.454 220.824 226.314 225.627 220.221C230.51 214.033 236.473 208.781 243.227 204.719C250.208 200.48 257.811 197.363 265.759 195.481C275.636 193.108 285.837 192.335 295.975 192.433C306.186 192.531 316.365 193.487 326.513 194.553C327.803 194.689 329.092 194.826 330.382 194.964C331.584 195.092 331.597 196.992 330.382 196.862C320.384 195.795 310.37 194.745 300.315 194.423C290.341 194.102 280.294 194.495 270.479 196.398C262.304 197.915 254.417 200.703 247.106 204.661C240.296 208.351 234.187 213.209 229.059 219.014C224.036 224.689 220.403 231.455 218.449 238.777C218.213 239.7 218.008 240.63 217.829 241.566C217.6 242.764 215.77 242.257 215.999 241.061Z" fill="black"/>
<path d="M323.602 181.379L338.764 197.507C338.866 197.611 338.942 197.736 338.988 197.873C339.034 198.01 339.048 198.156 339.029 198.299C339.011 198.442 338.96 198.58 338.881 198.701C338.802 198.822 338.696 198.923 338.572 198.998L324.893 205.537C323.796 206.061 322.832 204.425 323.935 203.898L337.614 197.359L337.422 198.849L322.259 182.721C321.423 181.831 322.763 180.486 323.602 181.379Z" fill="black"/>
</g>
<defs>
<clipPath id="clip0_520_189">
<rect width="520" height="380.77" fill="white" transform="matrix(-1 0 0 1 520 0)"/>
</clipPath>
</defs>
</svg>
