<svg width="24" height="25" viewBox="0 0 24 25" fill="none" xmlns="http://www.w3.org/2000/svg">
<path d="M4.98292 7.38876C6.19132 7.38876 7.17092 6.40916 7.17092 5.20076C7.17092 3.99236 6.19132 3.01276 4.98292 3.01276C3.77452 3.01276 2.79492 3.99236 2.79492 5.20076C2.79492 6.40916 3.77452 7.38876 4.98292 7.38876Z" fill="white"/>
<path d="M9.23697 9.04673V21.1857H13.006V15.1827C13.006 13.5987 13.304 12.0647 15.268 12.0647C17.205 12.0647 17.229 13.8757 17.229 15.2827V21.1867H21V14.5297C21 11.2597 20.296 8.74673 16.474 8.74673C14.639 8.74673 13.409 9.75373 12.906 10.7067H12.855V9.04673H9.23697ZM3.09497 9.04673H6.86997V21.1857H3.09497V9.04673Z" fill="white"/>
</svg>
