<svg width="305" height="356" viewBox="0 0 305 356" fill="none" xmlns="http://www.w3.org/2000/svg">
<path d="M233.381 246.055C228.491 233.341 225.752 226.129 225.166 224.662L223.992 221.703C214.456 197.84 211.205 189.698 165.923 188.842C165.703 187.767 165.263 185.688 164.456 182.045C161.547 168.72 153.038 129.6 152.94 121.825C161.718 129.16 171.767 136.837 180.96 140.26C191.84 144.246 211.962 105.321 215.337 98.6952C217.422 98.1089 219.282 96.9096 220.677 95.2529C222.073 93.5962 222.938 91.5586 223.161 89.4042C225.382 88.9278 227.677 88.8987 229.91 89.3185C232.143 89.7383 234.271 90.5986 236.168 91.8492H236.29C236.417 91.953 236.569 92.0206 236.73 92.0448H236.926C237.065 92.042 237.201 91.9996 237.317 91.9225C237.409 91.8713 237.491 91.8052 237.562 91.727C237.711 91.5963 237.821 91.4271 237.88 91.2379C239.322 83.9029 245.435 53.9517 246.29 50.2598V49.893C246.301 49.8364 246.301 49.7784 246.29 49.7219C246.3 49.6406 246.3 49.5586 246.29 49.4774C246.239 49.3856 246.173 49.303 246.095 49.2329C241.791 45.4676 234.334 43.756 227.097 44.8807C222.425 45.3425 218.109 47.5836 215.043 51.1399C211.816 47.8392 200.006 38.0348 181.033 46.6412C180.855 46.7265 180.702 46.8573 180.591 47.0204C180.479 47.1835 180.413 47.3732 180.398 47.5703C180.398 47.8881 179.395 78.8418 178.368 90.969C178.355 91.1636 178.395 91.3581 178.486 91.5309C178.577 91.7036 178.714 91.8477 178.882 91.947C179.041 92.0544 179.228 92.1138 179.42 92.1181C179.62 92.1217 179.817 92.0618 179.982 91.947C179.982 91.947 191.009 85.3455 202.451 87.9861C201.581 88.4476 200.911 89.2135 200.569 90.1377C200.569 90.5289 200.3 90.9201 200.153 91.3113C196.266 101.507 186.094 111.727 183.478 113.756C176.779 106.421 167.953 96.2502 159.419 86.2746L158.979 85.7367C155.581 81.7758 139.908 79.6486 135.801 79.1596C135.553 78.312 135.123 77.529 134.54 76.8658C133.957 76.2026 133.235 75.6753 132.427 75.321C131.195 71.7504 130.374 68.0508 129.982 64.2941C129.737 62.607 129.468 60.8711 129.175 59.2329H129.615C133.527 57.717 146.045 38.3037 143.894 29.3061C142.244 23.5693 139.773 18.1011 136.559 13.0713C140.666 12.2889 151.229 9.94171 153.454 5.95636C153.719 5.47309 153.858 4.93067 153.858 4.37933C153.858 3.82799 153.719 3.28557 153.454 2.8023C152.378 0.626253 148.833 -0.938546 131.033 6.05415C129.821 4.60311 128.332 3.40819 126.652 2.5392C124.973 1.6702 123.138 1.14457 121.253 0.993004C119.739 1.05243 118.255 1.43175 116.898 2.10601C115.541 2.78026 114.342 3.73418 113.38 4.905C110.753 8.25795 109.065 12.2494 108.49 16.4699C108.074 18.4014 107.781 20.2352 107.537 21.9467C106.69 21.4561 105.703 21.2618 104.733 21.3947C103.764 21.5275 102.866 21.9799 102.182 22.6802C99.4191 25.1252 98.3189 30.8954 100.104 33.3159C100.659 34.0126 101.372 34.5668 102.184 34.9325C102.996 35.2982 103.884 35.4649 104.774 35.4186C105.091 35.4427 105.41 35.4427 105.727 35.4186C104.847 45.0275 104.823 53.9761 104.847 63.3894C104.847 67.3992 104.847 71.4579 104.847 75.6144C103.557 76.5422 102.577 77.8374 102.035 79.3308C87.8054 82.1181 78.0499 84.3675 72.6953 89.5509C65.1403 96.8859 50.8614 135.419 51.6683 154.588C51.8639 159.625 53.0864 163.096 55.3114 164.955C58.2638 166.855 61.7658 167.715 65.2625 167.4C67.4694 167.373 69.6731 167.226 71.864 166.96C78.1721 165.517 99.6147 158.891 106.094 156.837L105.849 145.224C105.849 145.224 105.849 144.979 105.849 144.857C98.3433 146.128 80.177 148.867 74.4801 149.747H73.8689L73.551 149.16C72.5486 147.815 76.9251 129.404 82.8665 116.153C82.9839 115.894 83.1989 115.692 83.4646 115.591C83.7303 115.49 84.0251 115.499 84.2846 115.615C84.5373 115.732 84.7333 115.944 84.8295 116.205C84.9258 116.467 84.9145 116.755 84.798 117.008C80.5572 126.713 77.4637 136.88 75.5804 147.302C82.6954 146.275 100.813 143.561 106.803 142.412C107.693 141.059 109.066 140.097 110.642 139.722V140.847C111.114 141.884 111.86 142.773 112.798 143.419C113.737 144.066 114.834 144.444 115.972 144.514C116.709 144.614 117.453 144.664 118.197 144.661C122.793 144.661 128.246 142.803 130.226 140.358C130.308 140.25 130.382 140.135 130.446 140.016C130.728 140.066 130.99 140.193 131.204 140.382C131.375 140.56 131.507 140.771 131.591 141.003C131.676 141.235 131.71 141.481 131.693 141.727C131.617 142.591 131.36 143.43 130.939 144.188C130.517 144.946 129.941 145.607 129.248 146.128C127.761 147.278 126.043 148.092 124.211 148.515C122.379 148.937 120.477 148.957 118.637 148.573C118.361 148.518 118.075 148.575 117.841 148.731C117.607 148.887 117.445 149.129 117.39 149.404C117.335 149.68 117.391 149.966 117.547 150.2C117.703 150.434 117.946 150.596 118.221 150.651C119.245 150.847 120.284 150.945 121.326 150.945C124.443 150.967 127.488 150.009 130.031 148.206H130.177C130.371 148.18 130.568 148.198 130.754 148.257C130.94 148.316 131.11 148.416 131.253 148.549C131.42 148.7 131.552 148.885 131.64 149.092C131.729 149.299 131.772 149.522 131.766 149.747C131.632 150.433 131.342 151.078 130.918 151.634C130.494 152.189 129.948 152.64 129.321 152.95C126.123 154.8 122.375 155.467 118.735 154.832C118.598 154.808 118.457 154.812 118.322 154.843C118.187 154.875 118.059 154.934 117.947 155.016C117.835 155.098 117.741 155.202 117.67 155.322C117.6 155.442 117.554 155.575 117.537 155.713C117.494 155.988 117.564 156.269 117.729 156.494C117.894 156.719 118.141 156.868 118.417 156.911C119.435 157.077 120.466 157.159 121.497 157.155C124.449 157.185 127.356 156.443 129.933 155.004C130.061 155.038 130.196 155.038 130.324 155.004C130.476 154.978 130.632 154.986 130.78 155.028C130.928 155.071 131.065 155.146 131.18 155.248C131.325 155.368 131.444 155.517 131.528 155.685C131.612 155.854 131.66 156.038 131.669 156.226C131.669 156.764 130.764 158.011 128.344 159.013C123.467 160.713 118.189 160.892 113.209 159.527C111.553 159.121 109.92 158.623 108.319 158.035C105.703 158.867 77.7809 167.595 71.3261 168.891C70.274 175.912 69.6696 182.992 69.5168 190.089C69.2234 204.49 71.0572 216.471 74.8714 225.786C72.148 226.627 69.3312 227.128 66.485 227.278C66.2062 227.278 65.9388 227.389 65.7416 227.586C65.5444 227.783 65.4336 228.05 65.4336 228.329C65.4336 228.608 65.5444 228.875 65.7416 229.073C65.9388 229.27 66.2062 229.38 66.485 229.38C69.5833 229.234 72.6492 228.683 75.6049 227.742C77.2945 231.874 79.8129 235.615 83.0046 238.735C86.1964 241.856 89.9938 244.289 94.1624 245.884H0.445557V355.909H304.628V245.884L233.381 246.055ZM216.07 53.4138C217.392 51.5938 219.089 50.0782 221.046 48.969C223.002 47.8598 225.174 47.1827 227.415 46.9834C233.256 45.9161 239.282 47.1705 244.212 50.4798C243.038 55.9077 237.904 81.0668 236.241 89.3553C232.353 87.214 227.859 86.4391 223.478 87.1548C223.589 84.9284 223.441 82.6968 223.038 80.5044C222.403 77.0081 220.593 74.5875 218.442 74.5875C218.031 74.62 217.634 74.7446 217.278 74.952C216.922 75.1594 216.618 75.4443 216.388 75.7856C215.953 74.9228 215.273 74.2081 214.432 73.7318L216.07 53.4138ZM180.593 89.1842C181.473 77.1059 182.305 52.6559 182.451 48.3038C200.618 40.382 211.498 50.4553 213.894 53.047L212.256 73.365H211.84C211.2 73.5532 210.639 73.9476 210.246 74.487C209.852 75.0263 209.648 75.6805 209.664 76.3479C209.362 75.944 208.968 75.6172 208.515 75.3944C207.948 75.1697 207.329 75.1079 206.729 75.2159C206.128 75.3239 205.57 75.5974 205.116 76.0056C204.699 76.4232 204.418 76.957 204.309 77.5371C204.2 78.1173 204.268 78.7168 204.505 79.2575C206.192 83.9274 205.532 85.5656 204.823 86.2991C194.505 83.145 184.53 87.2282 180.593 89.1842ZM202.598 90.7979C202.794 90.2355 203.356 89.9177 204.261 89.4287C204.728 89.1924 205.177 88.9228 205.606 88.6218C208.051 86.837 208.442 83.7318 206.559 78.7196C206.315 78.035 206.559 77.7904 206.559 77.7171C206.709 77.5915 206.889 77.5055 207.081 77.4671C207.273 77.4286 207.472 77.4389 207.659 77.497C208.899 78.8775 209.744 80.5669 210.104 82.3871C210.549 84.3128 210.234 86.3358 209.224 88.035C209.067 88.3049 208.896 88.5661 208.711 88.8174C208.63 88.9514 208.579 89.1017 208.564 89.2575C208.54 89.3456 208.54 89.4384 208.564 89.5265C208.58 89.6732 208.628 89.8146 208.704 89.9412C208.78 90.0678 208.882 90.1765 209.004 90.26C209.242 90.4086 209.528 90.4585 209.802 90.3992C210.076 90.3398 210.316 90.1758 210.471 89.9421C210.657 89.6793 210.821 89.4012 210.96 89.1108C211.854 87.5584 212.411 85.8356 212.597 84.0539C212.782 82.2723 212.591 80.4715 212.036 78.7684C211.473 76.3234 211.522 75.9812 212.5 75.59C212.653 75.5561 212.812 75.5561 212.965 75.59C213.503 75.59 214.139 76.4213 214.676 77.5704C216.217 80.9445 216.632 87.3504 214.896 90.1377C214.789 90.3254 214.658 90.498 214.505 90.6512C214.326 90.8227 214.215 91.0534 214.192 91.3006C214.17 91.5478 214.237 91.7948 214.383 91.9959C214.383 91.9959 214.383 91.9959 214.383 92.1426C214.495 92.228 214.622 92.2901 214.758 92.3254C214.894 92.3606 215.036 92.3681 215.175 92.3476C215.314 92.3271 215.448 92.2789 215.568 92.2059C215.688 92.1329 215.792 92.0365 215.874 91.9225C216.071 91.6569 216.251 91.3792 216.412 91.0913C217.405 89.3609 218.018 87.4394 218.212 85.4541C218.406 83.4688 218.176 81.465 217.537 79.5753C217.389 79.0477 217.291 78.5075 217.244 77.9616C217.244 77.1548 217.659 76.6413 217.977 76.6413C218.588 76.6413 219.958 77.8394 220.422 80.7978C220.909 83.2113 221.017 85.6862 220.74 88.1328C220.685 90.0868 219.987 91.968 218.753 93.4844C217.52 95.0008 215.82 96.0676 213.918 96.5192C211.634 96.83 209.307 96.5063 207.194 95.5835C205.081 94.6606 203.263 93.1742 201.938 91.2869L202.598 90.7979ZM154.212 190.896H157.39H163.527H165.116C209.664 191.605 212.574 198.842 221.987 222.437L223.185 225.395C223.772 226.887 226.632 234.319 231.645 247.4L242.916 276.985L244.457 280.994L247.366 288.672L229.762 298.305L227.317 294.369C224.628 290.212 221.474 285.346 218.295 280.285C213.405 272.339 208.955 265.322 205.41 259.478C200.716 251.679 197.586 246.202 196.07 243.146C195.85 237.742 195.581 233.757 195.239 230.627C192.794 208.622 177.244 195.688 146.95 191.067L154.212 190.896ZM196.681 266.691C196.681 262.681 196.486 259.038 196.388 255.738L196.241 251.141C196.241 249.967 196.241 248.867 196.241 247.791C197.985 250.953 200.43 255.134 203.576 260.334L207.464 266.691H196.681ZM208.662 268.818C211.107 272.632 213.552 276.74 216.388 281.19C219.566 286.251 222.745 291.141 225.434 295.298L228.809 300.505L229.273 301.337H197.488C197.268 293.708 197.097 286.814 196.926 280.628L196.657 269.527V268.965L208.662 268.818ZM230.08 340.237V342.682H175.581V340.237H230.08ZM198.295 320.139C198.099 314.198 197.928 308.647 197.781 303.44H230.593L237.293 315.151C237.108 315.299 236.981 315.507 236.932 315.739C236.883 315.971 236.915 316.212 237.024 316.422L237.195 316.765L239.2 320.53C239.293 320.696 239.427 320.835 239.59 320.934C239.753 321.032 239.939 321.087 240.129 321.092C240.31 321.09 240.487 321.039 240.642 320.946L273.063 303.44H286.633V321.19H200.691C199.591 320.799 198.784 320.457 198.173 320.31L198.295 320.139ZM240.593 318.599L239.518 316.569L287.391 290.579L288.54 292.706L240.593 318.599ZM151.62 3.6336C151.728 3.81026 151.785 4.01332 151.785 4.2204C151.785 4.42748 151.728 4.63054 151.62 4.8072C149.811 8.0346 138.221 10.6019 135.336 11.0664C134.509 9.87874 133.62 8.73611 132.671 7.64341C149.322 1.16416 151.375 3.1446 151.62 3.6336ZM114.945 6.3231C115.714 5.35583 116.677 4.56024 117.771 3.98755C118.866 3.41485 120.069 3.07774 121.302 2.9979C124.245 3.24979 126.982 4.61372 128.955 6.81211C121.644 9.79501 114.651 13.0713 110.935 14.685C111.583 11.6216 112.949 8.75567 114.92 6.3231H114.945ZM105.923 33.2181C105.19 33.4067 104.421 33.3998 103.691 33.1981C102.962 32.9965 102.298 32.6072 101.766 32.069C100.691 30.6264 101.473 26.201 103.576 24.245C103.834 23.9905 104.142 23.7931 104.481 23.6652C104.82 23.5374 105.182 23.482 105.544 23.5028C105.906 23.5235 106.259 23.6199 106.581 23.7856C106.903 23.9513 107.187 24.1828 107.414 24.465C108.168 25.1928 108.826 26.0145 109.37 26.91C109.525 27.1437 109.765 27.3077 110.039 27.3671C110.313 27.4264 110.6 27.3765 110.837 27.2279C111.067 27.0692 111.226 26.8274 111.281 26.5537C111.335 26.28 111.282 25.9957 111.131 25.7609C110.626 24.9725 110.036 24.2426 109.37 23.5848V23.1447C109.639 21.4332 109.933 19.5017 110.324 17.5701L111.497 17.0322C115.165 15.2963 122.744 11.751 130.495 8.62141C131.721 9.99105 132.848 11.4453 133.869 12.9735C137.376 18.1568 140.049 23.8576 141.791 29.8685C143.796 38.1815 131.473 56.2989 128.808 57.3258C128.457 57.4493 128.097 57.5474 127.732 57.6192C123.258 58.4016 117.292 54.0984 115.507 50.0153C115.448 49.89 115.364 49.7777 115.262 49.6848C115.159 49.5918 115.039 49.52 114.908 49.4735C114.778 49.4269 114.639 49.4066 114.501 49.4135C114.362 49.4205 114.227 49.4546 114.101 49.514C113.976 49.5734 113.864 49.6569 113.771 49.7597C113.678 49.8625 113.606 49.9826 113.56 50.1132C113.513 50.2437 113.493 50.3821 113.5 50.5206C113.507 50.659 113.541 50.7947 113.6 50.9199C114.858 53.3971 116.725 55.5136 119.027 57.0705C121.328 58.6274 123.987 59.5734 126.754 59.8197H127.17C127.463 61.3845 127.708 63.0226 127.952 64.7097C128.351 68.0173 129.013 71.2877 129.933 74.4897C122.303 73.224 114.511 73.2819 106.901 74.6609C106.901 70.7978 106.901 67.0325 106.901 63.2916C106.901 53.6828 106.901 44.5874 107.83 34.7829C108.09 34.7041 108.343 34.606 108.588 34.4895C108.712 34.4277 108.823 34.3413 108.912 34.2356C109.002 34.1299 109.07 34.0071 109.111 33.8745C109.152 33.742 109.166 33.6025 109.152 33.4645C109.138 33.3264 109.095 33.1927 109.028 33.0714C108.898 32.8253 108.676 32.6407 108.41 32.5582C108.144 32.4757 107.856 32.502 107.61 32.6313C107.249 32.8114 106.873 32.9587 106.485 33.0714L105.923 33.2181ZM110.813 124.221C110.221 124.894 109.914 125.771 109.957 126.666L110.128 129.747C109.284 129.473 108.526 128.986 107.925 128.334C107.324 127.681 106.901 126.885 106.698 126.021C106.495 125.158 106.518 124.257 106.765 123.405C107.011 122.552 107.473 121.778 108.107 121.157C108.74 120.536 109.522 120.088 110.379 119.858C111.236 119.627 112.137 119.621 112.997 119.841C113.856 120.06 114.644 120.498 115.285 121.111C115.927 121.724 116.399 122.492 116.656 123.341H112.671C112.317 123.342 111.967 123.416 111.643 123.56C111.319 123.703 111.028 123.911 110.788 124.172L110.813 124.221ZM112.06 126.666C112.032 126.322 112.137 125.981 112.353 125.712C112.441 125.613 112.564 125.552 112.696 125.541H123.527L121.815 137.155C120.689 136.704 119.628 136.104 118.661 135.37C117.831 134.61 116.836 134.052 115.755 133.738C114.674 133.424 113.535 133.364 112.427 133.561L112.06 126.666ZM128.515 139.624C125.066 142.217 120.74 143.357 116.461 142.803C115.712 142.758 114.987 142.526 114.35 142.129C113.714 141.732 113.187 141.182 112.818 140.529L112.549 135.639C114.554 135.028 115.752 135.835 117.439 137.008C118.874 138.165 120.542 138.999 122.329 139.453C123.066 139.623 123.821 139.705 124.578 139.698C124.969 139.722 125.361 139.722 125.752 139.698C125.906 139.723 126.063 139.723 126.216 139.698C127.021 139.505 127.784 139.165 128.466 138.695L128.515 139.624ZM128.759 135.346C128.442 135.955 127.97 136.47 127.39 136.837L129.004 125.835C129.164 126.072 129.242 126.356 129.224 126.642L128.759 135.346ZM129.639 113.047C129.388 113.051 129.147 113.144 128.959 113.31C128.77 113.476 128.647 113.703 128.612 113.952L125.116 137.522C124.701 137.559 124.284 137.559 123.869 137.522L127.683 111.825H140.031V112.925L129.639 113.047ZM120.715 162.705C123.116 162.736 125.507 162.398 127.806 161.703L127.561 165.541C127.561 166.079 127.219 166.471 126.925 166.471H115.092C114.798 166.471 114.48 166.104 114.456 165.541L114.26 162.045C116.386 162.471 118.547 162.692 120.715 162.705ZM77.8298 227.156C86.7051 223.586 91.6685 216.618 91.424 207.84C91.4117 207.567 91.2962 207.31 91.101 207.119C90.9058 206.928 90.6454 206.819 90.3726 206.813C90.0916 206.826 89.8267 206.948 89.6348 207.154C89.4428 207.359 89.3391 207.632 89.3457 207.913C89.6636 218.402 82.1819 223.219 77.1208 225.248C73.4777 216.422 71.7173 205.028 71.8885 191.336L113.087 191.116H118.735C166.486 191.336 190.129 203.928 193.136 230.774C193.478 233.879 193.747 237.889 193.992 243.366H194.945H194.09C194.09 245.811 194.261 248.378 194.358 251.385L194.505 255.884C194.505 259.967 194.725 264.515 194.847 269.674L195.141 280.799C195.41 291.508 195.752 304.32 196.266 319.748H175.654C173.405 306.716 170.764 293.88 167.341 280.628C164.896 270.603 162.451 262.143 160.422 255.029L159.957 253.415C159.322 251.141 158.441 248.109 158.148 247.009L157.928 246.226H157.781H105.483C92.6709 245.493 83.3799 239.112 77.8298 227.156ZM173.503 320.872V321.288H116.485V303.537H170.275C171.465 309.307 172.541 315.086 173.503 320.872ZM2.54825 248.182H106.045C107.072 248.182 108.123 248.182 109.15 248.182H156.216C156.608 249.601 157.268 251.997 157.83 253.953L158.417 256.006C159.371 259.307 160.373 262.877 161.449 266.764H2.54825V248.182ZM302.525 354.027H2.54825V268.965H161.913C162.94 272.73 163.992 276.74 165.067 281.19C166.803 288.085 168.368 294.858 169.786 301.606H16.5337V323.611H173.503V339.259L173.038 340.555H173.478V344.149C173.478 344.428 173.589 344.695 173.786 344.892C173.983 345.089 174.251 345.2 174.53 345.2H231.131C231.41 345.2 231.678 345.089 231.875 344.892C232.072 344.695 232.183 344.428 232.183 344.149V339.503C232.194 339.43 232.194 339.356 232.183 339.283C232.393 338.078 232.393 336.845 232.183 335.64C231.302 331.777 227.757 329.185 222.403 328.574C216.62 327.694 210.98 326.05 205.63 323.684H288.76V301.679H277L290.471 294.344C290.594 294.28 290.702 294.192 290.789 294.085C290.876 293.979 290.942 293.856 290.98 293.723C291.019 293.591 291.031 293.452 291.015 293.315C290.999 293.178 290.955 293.046 290.887 292.926L288.687 288.843L288.54 288.672C288.126 287.523 287.514 286.455 286.731 285.518C284.09 282.535 279.762 281.948 274.848 283.904C268.619 286.038 262.13 287.321 255.557 287.718L252.843 287.938C251.205 287.938 250.178 288.158 249.518 288.256C249.004 286.96 247.977 284.222 246.584 280.554L245.019 276.496L242.207 269.161H302.648L302.525 354.027ZM302.525 266.789H241.278L234.188 248.182H302.648L302.525 266.789Z" fill="black"/>
<path d="M40.03 252.657C39.0287 252.633 38.0431 252.909 37.2004 253.45C36.3576 253.992 35.6964 254.773 35.302 255.694C34.9075 256.615 34.798 257.632 34.9875 258.616C35.177 259.599 35.6568 260.504 36.365 261.212C37.0733 261.92 37.9775 262.4 38.961 262.589C39.9446 262.779 40.9623 262.669 41.883 262.275C42.8037 261.88 43.5851 261.219 44.1264 260.376C44.6677 259.534 44.9442 258.548 44.92 257.547C44.889 256.26 44.3638 255.034 43.4534 254.123C42.543 253.213 41.3172 252.688 40.03 252.657ZM40.03 260.554C39.4594 260.554 38.9016 260.385 38.4272 260.068C37.9527 259.751 37.5829 259.3 37.3645 258.773C37.1462 258.246 37.089 257.666 37.2004 257.106C37.3117 256.547 37.5865 256.032 37.99 255.629C38.3934 255.226 38.9075 254.951 39.4672 254.839C40.0268 254.728 40.6069 254.785 41.1341 255.004C41.6613 255.222 42.1119 255.592 42.4289 256.066C42.7459 256.541 42.9151 257.098 42.9151 257.669C42.9151 258.048 42.8405 258.423 42.6955 258.773C42.5505 259.123 42.338 259.441 42.0701 259.709C41.8022 259.977 41.4841 260.19 41.1341 260.335C40.7841 260.48 40.4089 260.554 40.03 260.554Z" fill="black"/>
<path d="M26.0445 252.657C25.0774 252.657 24.132 252.944 23.3278 253.481C22.5237 254.018 21.8969 254.782 21.5268 255.676C21.1567 256.569 21.0598 257.552 21.2485 258.501C21.4372 259.449 21.9029 260.321 22.5868 261.005C23.2707 261.688 24.142 262.154 25.0906 262.343C26.0391 262.532 27.0223 262.435 27.9159 262.065C28.8094 261.695 29.5731 261.068 30.1104 260.264C30.6478 259.459 30.9345 258.514 30.9345 257.547C30.9035 256.26 30.3784 255.034 29.4679 254.123C28.5575 253.213 27.3317 252.688 26.0445 252.657ZM26.0445 260.554C25.4739 260.554 24.9161 260.385 24.4417 260.068C23.9672 259.751 23.5974 259.3 23.3791 258.773C23.1607 258.246 23.1036 257.666 23.2149 257.106C23.3262 256.547 23.601 256.033 24.0045 255.629C24.408 255.226 24.922 254.951 25.4817 254.839C26.0413 254.728 26.6214 254.785 27.1486 255.004C27.6758 255.222 28.1264 255.592 28.4434 256.066C28.7604 256.541 28.9296 257.098 28.9296 257.669C28.9296 258.048 28.855 258.423 28.71 258.773C28.565 259.123 28.3525 259.441 28.0846 259.709C27.8167 259.977 27.4987 260.19 27.1486 260.335C26.7986 260.48 26.4234 260.554 26.0445 260.554Z" fill="black"/>
<path d="M12.1327 252.657C11.1655 252.657 10.2201 252.944 9.41594 253.481C8.61178 254.018 7.98502 254.782 7.61491 255.676C7.24479 256.569 7.14796 257.552 7.33664 258.501C7.52532 259.449 7.99104 260.321 8.67492 261.005C9.3588 261.688 10.2301 262.154 11.1787 262.343C12.1272 262.532 13.1105 262.435 14.004 262.065C14.8975 261.695 15.6612 261.068 16.1986 260.264C16.7359 259.459 17.0227 258.514 17.0227 257.547C17.0227 256.25 16.5075 255.006 15.5904 254.089C14.6734 253.172 13.4296 252.657 12.1327 252.657ZM12.1327 260.554C11.5631 260.549 11.0077 260.376 10.5365 260.056C10.0653 259.736 9.69931 259.284 9.48469 258.756C9.27007 258.229 9.21641 257.649 9.33048 257.091C9.44454 256.533 9.72124 256.022 10.1257 255.621C10.5301 255.22 11.0442 254.947 11.6032 254.838C12.1622 254.728 12.741 254.787 13.2668 255.006C13.7925 255.225 14.2417 255.595 14.5576 256.069C14.8736 256.543 15.0422 257.1 15.0422 257.669C15.0422 258.05 14.9668 258.427 14.8203 258.779C14.6738 259.131 14.4591 259.45 14.1886 259.718C13.9181 259.986 13.5971 260.198 13.2443 260.342C12.8914 260.485 12.5136 260.557 12.1327 260.554Z" fill="black"/>
<path d="M120.128 32.4601C120.295 32.4583 120.459 32.4175 120.608 32.3411C120.757 32.2647 120.885 32.1548 120.984 32.02C121.52 31.497 122.24 31.207 122.989 31.2132C123.842 31.0937 124.71 31.2846 125.434 31.7511C125.532 31.849 125.648 31.9267 125.776 31.9797C125.904 32.0327 126.041 32.06 126.18 32.06C126.318 32.06 126.455 32.0327 126.583 31.9797C126.711 31.9267 126.827 31.849 126.925 31.7511C127.023 31.6532 127.101 31.5369 127.154 31.409C127.207 31.281 127.234 31.1439 127.234 31.0054C127.234 30.8669 127.207 30.7297 127.154 30.6018C127.101 30.4738 127.023 30.3576 126.925 30.2596C126.362 29.8033 125.712 29.4661 125.014 29.2686C124.316 29.071 123.586 29.0173 122.867 29.1105C122.189 29.1207 121.522 29.2767 120.91 29.5678C120.298 29.8589 119.757 30.2783 119.321 30.7975C119.238 30.9087 119.178 31.0357 119.145 31.1708C119.112 31.3059 119.106 31.4463 119.129 31.5834C119.152 31.7206 119.203 31.8517 119.278 31.9688C119.353 32.0859 119.451 32.1865 119.566 32.2645C119.727 32.3897 119.924 32.4584 120.128 32.4601Z" fill="black"/>
<path d="M107.805 27.3745C107.708 27.2762 107.591 27.1982 107.464 27.145C107.336 27.0917 107.198 27.0643 107.06 27.0643C106.921 27.0643 106.784 27.0917 106.656 27.145C106.528 27.1982 106.412 27.2762 106.314 27.3745C105.464 28.1141 104.384 28.5373 103.258 28.5726C103.118 28.5693 102.978 28.5941 102.848 28.6455C102.717 28.6969 102.599 28.7738 102.498 28.8717C102.398 28.9697 102.319 29.0867 102.264 29.2159C102.21 29.3451 102.182 29.4838 102.182 29.6239C102.182 29.9051 102.292 30.1751 102.488 30.3761C102.685 30.5772 102.952 30.6934 103.233 30.6997C104.883 30.6459 106.463 30.0241 107.708 28.9394C107.821 28.8456 107.913 28.7297 107.98 28.5988C108.047 28.4679 108.086 28.3247 108.095 28.1781C108.104 28.0315 108.083 27.8846 108.033 27.7464C107.983 27.6082 107.906 27.4816 107.805 27.3745Z" fill="black"/>
<path d="M129.321 46.0299C129.861 46.2345 130.432 46.3421 131.008 46.3478C131.626 46.3568 132.228 46.1588 132.72 45.7854C134.065 44.6852 133.942 42.5091 133.649 40.5287C133.649 39.8685 133.429 39.135 133.282 38.377C132.654 36.1918 132.537 33.8911 132.94 31.6533C134.575 31.0917 136.33 30.9736 138.026 31.311C138.162 31.3316 138.302 31.3243 138.436 31.2895C138.57 31.2548 138.696 31.1933 138.805 31.1088C138.915 31.0243 139.006 30.9186 139.074 30.7978C139.142 30.6771 139.184 30.544 139.199 30.4064C139.202 30.1548 139.115 29.9104 138.954 29.7174C138.792 29.5245 138.567 29.3959 138.319 29.355C136.121 28.8979 133.836 29.1196 131.766 29.9907H131.62C131.406 30.0939 131.234 30.2662 131.131 30.4797C130.301 33.2052 130.301 36.1161 131.131 38.8416C131.277 39.5751 131.4 40.2597 131.497 40.8709C131.84 43.3159 131.497 44.0006 131.302 44.1962C130.871 44.3741 130.388 44.3741 129.957 44.1962C129.827 44.1495 129.689 44.129 129.551 44.1357C129.413 44.1425 129.278 44.1763 129.153 44.2353C129.028 44.2944 128.916 44.3774 128.823 44.4798C128.73 44.5821 128.659 44.7018 128.612 44.8319C128.564 45.0837 128.61 45.3444 128.74 45.565C128.871 45.7857 129.077 45.951 129.321 46.0299Z" fill="black"/>
<path d="M121.913 51.0177C122.451 51.1375 123 51.195 123.551 51.1888C124.141 51.2267 124.732 51.142 125.288 50.94C125.843 50.738 126.351 50.4232 126.779 50.0152C126.971 49.8148 127.079 49.5476 127.079 49.2695C127.079 48.9915 126.971 48.7242 126.779 48.5238C126.681 48.4255 126.565 48.3474 126.437 48.2942C126.309 48.241 126.172 48.2135 126.033 48.2135C125.894 48.2135 125.757 48.241 125.629 48.2942C125.501 48.3474 125.385 48.4255 125.287 48.5238C124.87 48.7678 124.407 48.922 123.927 48.9768C123.447 49.0315 122.961 48.9855 122.5 48.8416C121.864 48.7228 121.272 48.4322 120.79 48.0012C120.307 47.5702 119.951 47.0153 119.762 46.3966C119.687 46.1263 119.51 45.8958 119.268 45.7543C119.026 45.6127 118.738 45.5712 118.466 45.6387C118.197 45.7079 117.967 45.8803 117.825 46.1184C117.683 46.3565 117.641 46.641 117.708 46.9101C117.94 47.9263 118.46 48.8541 119.206 49.5825C119.952 50.3109 120.892 50.8092 121.913 51.0177Z" fill="black"/>
<path d="M136.632 34.4406C136.373 34.4406 136.124 34.5437 135.941 34.7271C135.757 34.9105 135.654 35.1592 135.654 35.4186C135.654 35.678 135.757 35.9268 135.941 36.1102C136.124 36.2936 136.373 36.3966 136.632 36.3966C136.891 36.3966 137.14 36.2936 137.324 36.1102C137.507 35.9268 137.61 35.678 137.61 35.4186C137.61 35.1592 137.507 34.9105 137.324 34.7271C137.14 34.5437 136.891 34.4406 136.632 34.4406Z" fill="black"/>
<path d="M123.771 35.4186C123.771 35.612 123.829 35.8011 123.936 35.962C124.044 36.1228 124.196 36.2481 124.375 36.3222C124.554 36.3962 124.75 36.4156 124.94 36.3778C125.13 36.3401 125.304 36.2469 125.441 36.1102C125.578 35.9734 125.671 35.7991 125.708 35.6094C125.746 35.4197 125.727 35.2231 125.653 35.0443C125.579 34.8656 125.453 34.7129 125.293 34.6054C125.132 34.498 124.943 34.4406 124.749 34.4406C124.49 34.4406 124.241 34.5437 124.058 34.7271C123.874 34.9105 123.771 35.1592 123.771 35.4186Z" fill="black"/>
</svg>
