<svg width="122" height="36" viewBox="0 0 122 36" fill="none" xmlns="http://www.w3.org/2000/svg">
<path d="M76.7612 5.36515C76.7612 6.71519 76.2249 8.00994 75.2703 8.96456C74.3157 9.91919 73.0209 10.4555 71.6709 10.4555C70.3209 10.4555 69.0261 9.91919 68.0715 8.96456C67.1169 8.00994 66.5806 6.71519 66.5806 5.36515C66.5806 4.01511 67.1169 2.72036 68.0715 1.76574C69.0261 0.811113 70.3209 0.274811 71.6709 0.274811C73.0209 0.274811 74.3157 0.811113 75.2703 1.76574C76.2249 2.72036 76.7612 4.01511 76.7612 5.36515ZM76.4065 5.35952C76.4065 4.10506 75.9082 2.90197 75.0211 2.01493C74.1341 1.12789 72.931 0.629558 71.6765 0.629558C70.4221 0.629558 69.219 1.12789 68.3319 2.01493C67.4449 2.90197 66.9466 4.10506 66.9466 5.35952C66.9466 6.61398 67.4449 7.81707 68.3319 8.70411C69.219 9.59115 70.4221 10.0895 71.6765 10.0895C72.931 10.0895 74.1341 9.59115 75.0211 8.70411C75.9082 7.81707 76.4065 6.61398 76.4065 5.35952Z" fill="black"/>
<path d="M112.546 5.02594C112.634 6.36109 112.181 7.67729 111.286 8.685C110.391 9.69271 109.127 10.3094 107.773 10.3993C106.418 10.4893 105.084 10.0452 104.064 9.16471C103.043 8.28423 102.42 7.0395 102.331 5.70435C102.243 4.3692 102.696 3.053 103.591 2.04529C104.486 1.03758 105.75 0.420911 107.104 0.330944C108.459 0.240981 109.793 0.68509 110.813 1.56557C111.834 2.44605 112.457 3.69078 112.546 5.02594ZM112.168 5.35951C112.168 4.10206 111.669 2.89611 110.78 2.00696C109.891 1.11781 108.685 0.618289 107.427 0.618289C106.805 0.618289 106.188 0.740924 105.613 0.979193C105.038 1.21746 104.515 1.5667 104.075 2.00696C103.634 2.44722 103.285 2.96989 103.047 3.54512C102.809 4.12036 102.686 4.73689 102.686 5.35951C102.686 5.98214 102.809 6.59867 103.047 7.1739C103.285 7.74913 103.634 8.2718 104.075 8.71206C104.515 9.15233 105.038 9.50156 105.613 9.73983C106.188 9.9781 106.805 10.1007 107.427 10.1007C108.685 10.1007 109.891 9.60122 110.78 8.71206C111.669 7.82291 112.168 6.61696 112.168 5.35951Z" fill="black"/>
<path d="M39.8845 9.84172L43.7248 9.87551C43.7516 9.87551 43.7774 9.88619 43.7964 9.9052C43.8154 9.9242 43.8261 9.94998 43.8261 9.97687V10.1739C43.8261 10.2008 43.8154 10.2266 43.7964 10.2456C43.7774 10.2646 43.7516 10.2753 43.7248 10.2753H39.4734C39.4465 10.2753 39.4208 10.2646 39.4018 10.2456C39.3827 10.2266 39.3721 10.2008 39.3721 10.1739V0.623929C39.372 0.597996 39.3819 0.573033 39.3997 0.554179C39.4175 0.535325 39.4419 0.524014 39.4678 0.522573L39.6761 0.50568C39.6899 0.504914 39.7037 0.506968 39.7167 0.511717C39.7296 0.516467 39.7415 0.523811 39.7515 0.5333C39.7615 0.54279 39.7695 0.554224 39.7749 0.566903C39.7804 0.579582 39.7831 0.593239 39.7831 0.607037V9.74037C39.7831 9.75368 39.7857 9.76686 39.7908 9.77916C39.7959 9.79145 39.8034 9.80263 39.8128 9.81204C39.8222 9.82145 39.8334 9.82892 39.8457 9.83401C39.858 9.8391 39.8712 9.84172 39.8845 9.84172Z" fill="black"/>
<path d="M45.4985 9.83046L50.0088 9.91492C50.0247 9.91484 50.0402 9.90995 50.0533 9.90091C50.0663 9.89186 50.0763 9.87908 50.082 9.86424L54.2714 0.0495736C54.2773 0.0349404 54.2874 0.0223962 54.3004 0.0135596C54.3135 0.00472313 54.3289 0 54.3446 0C54.3604 0 54.3758 0.00472313 54.3888 0.0135596C54.4019 0.0223962 54.412 0.0349404 54.4178 0.0495736L58.7818 10.2077C58.7895 10.2265 58.7897 10.2474 58.7823 10.2663C58.775 10.2852 58.7607 10.3005 58.7424 10.3091L58.6016 10.371C58.5829 10.3787 58.5619 10.3789 58.543 10.3716C58.5242 10.3643 58.5088 10.3499 58.5002 10.3316L56.9236 6.9418C56.917 6.92802 56.9066 6.91642 56.8937 6.90843C56.8807 6.90043 56.8656 6.89638 56.8504 6.89676L51.8107 6.90802C51.7955 6.90764 51.7804 6.91169 51.7674 6.91969C51.7544 6.92768 51.744 6.93928 51.7375 6.95307L50.3805 10.1402C50.3739 10.1539 50.3635 10.1655 50.3505 10.1735C50.3375 10.1815 50.3225 10.1856 50.3073 10.1852L45.0818 10.3203C45.0609 10.3203 45.0408 10.312 45.026 10.2973C45.0112 10.2825 45.0029 10.2624 45.0029 10.2415L44.9973 0.595772C44.9973 0.575804 45.0048 0.556561 45.0184 0.541928C45.032 0.527296 45.0506 0.518365 45.0705 0.516939L45.3295 0.500046C45.3404 0.499272 45.3512 0.500737 45.3614 0.50435C45.3717 0.507964 45.381 0.513647 45.389 0.521046C45.3969 0.528445 45.4032 0.5374 45.4075 0.547351C45.4118 0.557302 45.414 0.568035 45.414 0.578879L45.4196 9.75163C45.4196 9.77253 45.4279 9.79259 45.4427 9.80737C45.4575 9.82215 45.4776 9.83046 45.4985 9.83046ZM52.0923 6.11406C52.0755 6.15453 52.069 6.19853 52.0734 6.24212C52.0778 6.2857 52.093 6.32751 52.1176 6.36379C52.1421 6.40007 52.1753 6.42969 52.2141 6.44998C52.253 6.47028 52.2962 6.48061 52.34 6.48007H56.3492C56.393 6.48061 56.4363 6.47028 56.4751 6.44998C56.5139 6.42969 56.5471 6.40007 56.5717 6.36379C56.5962 6.32751 56.6114 6.2857 56.6158 6.24212C56.6202 6.19853 56.6138 6.15453 56.597 6.11406L54.5867 1.34468C54.566 1.29774 54.5321 1.25782 54.4891 1.2298C54.4461 1.20179 54.3959 1.18687 54.3446 1.18687C54.2933 1.18687 54.2431 1.20179 54.2001 1.2298C54.1571 1.25782 54.1232 1.29774 54.1025 1.34468L52.0923 6.11406Z" fill="black"/>
<path d="M64.0185 5.35951L64.4971 5.62416C64.7711 5.77432 64.9813 5.98454 65.1278 6.25483C65.6758 7.25713 65.6664 8.22189 65.0996 9.14911C64.193 10.6357 61.6479 10.3091 60.15 10.2809C60.0793 10.2795 60.012 10.2497 59.9625 10.1981C59.913 10.1466 59.8853 10.0772 59.8854 10.005L59.8403 0.860417C59.8403 0.616411 59.9623 0.494408 60.2063 0.494408C60.9496 0.490654 61.7492 0.498162 62.6051 0.516931C64.8518 0.567609 65.933 3.50131 63.9959 4.81331C63.7031 5.00852 63.7106 5.19058 64.0185 5.35951ZM60.2232 1.19827L60.2345 4.71196C60.2345 4.80007 60.2695 4.88457 60.3318 4.94687C60.3941 5.00918 60.4786 5.04418 60.5667 5.04418L62.4643 5.03855C63.0257 5.03688 63.5636 4.82951 63.9595 4.46205C64.3555 4.09458 64.5772 3.59709 64.5759 3.07899V2.80871C64.5753 2.55206 64.5199 2.29807 64.4128 2.06125C64.3058 1.82443 64.1492 1.60941 63.9521 1.42849C63.7549 1.24757 63.5211 1.10427 63.2639 1.0068C63.0067 0.909332 62.7312 0.859589 62.4531 0.860417L60.5555 0.866048C60.4673 0.866048 60.3828 0.90105 60.3205 0.963354C60.2582 1.02566 60.2232 1.11016 60.2232 1.19827ZM60.2514 5.7762V9.50386C60.2514 9.60093 60.2899 9.69403 60.3586 9.76267C60.4272 9.83131 60.5203 9.86987 60.6174 9.86987H62.9373C63.5272 9.86987 64.093 9.64087 64.5101 9.23326C64.9272 8.82564 65.1615 8.27279 65.1615 7.69634V7.58372C65.1615 7.00726 64.9272 6.45442 64.5101 6.0468C64.093 5.63919 63.5272 5.41019 62.9373 5.41019H60.6174C60.5203 5.41019 60.4272 5.44875 60.3586 5.51739C60.2899 5.58603 60.2514 5.67913 60.2514 5.7762Z" fill="black"/>
<path d="M81.3673 6.54201C81.3317 6.54148 81.2967 6.55086 81.2662 6.56911C81.2357 6.58735 81.2108 6.61374 81.1945 6.64531C81.1781 6.67688 81.1708 6.71238 81.1735 6.74784C81.1762 6.7833 81.1887 6.81732 81.2096 6.84608L83.5464 9.98812C83.6103 10.0707 83.6009 10.142 83.5183 10.2021L83.4057 10.2922C83.3756 10.3147 83.3475 10.311 83.3212 10.2809L80.5677 6.52511C80.3575 6.23981 80.4269 6.12344 80.776 6.176C84.8303 6.7785 85.1062 0.899838 81.57 0.877314C80.6465 0.869806 79.7531 0.867929 78.8897 0.871683C78.6156 0.871683 78.4786 1.00682 78.4786 1.27711V10.1402C78.4786 10.204 78.4467 10.2359 78.3829 10.2359H78.214C78.1351 10.2359 78.0957 10.1965 78.0957 10.1176L78.0901 0.85479C78.0901 0.599523 78.2177 0.47752 78.473 0.488781C79.3364 0.533829 80.2092 0.537583 81.0914 0.500043C85.5341 0.314223 85.3427 6.68841 81.3673 6.54201Z" fill="black"/>
<path d="M121.578 9.01961L121.589 0.652079C121.589 0.565738 121.63 0.520691 121.713 0.516937L121.876 0.505675C121.951 0.501921 121.989 0.537584 121.989 0.612662L122 9.86424C122 10.6075 121.782 10.6788 121.347 10.0782L115.012 1.40099C114.674 0.939255 114.505 0.993688 114.505 1.56429L114.522 10.1402C114.522 10.204 114.49 10.2359 114.426 10.2359H114.241C114.169 10.2359 114.134 10.1983 114.134 10.1233V1.35594C114.134 0.207237 114.473 0.096496 115.153 1.02372L121.127 9.17164C121.427 9.58082 121.578 9.53014 121.578 9.01961Z" fill="black"/>
<path d="M2.67546 15.8161C1.4817 14.8251 0.918613 13.3779 1.81956 12.1222C3.0471 10.4161 5.9808 11.0918 6.21167 13.2766C6.34681 14.5792 5.64107 15.5008 4.09444 16.0414C3.72656 16.169 3.68151 16.3698 3.9593 16.6439L6.16662 18.823C6.39185 19.0483 6.57955 19.0201 6.72971 18.7386L8.48092 15.4107C8.49594 15.3844 8.51658 15.3769 8.54286 15.3882L8.68926 15.4557C8.71458 15.4665 8.73735 15.4825 8.75613 15.5026C8.7749 15.5227 8.78926 15.5465 8.79828 15.5725C8.80729 15.5985 8.81077 15.6261 8.80848 15.6535C8.80619 15.6809 8.79819 15.7075 8.78499 15.7317L6.97184 19.2228C6.93431 19.2971 6.92065 19.381 6.93277 19.4627C6.94488 19.5445 6.98216 19.6201 7.03941 19.6789L9.7535 22.4493C9.79104 22.4869 9.79292 22.5263 9.75914 22.5676L9.6071 22.7365C9.53202 22.8191 9.45694 22.821 9.38187 22.7421L6.93242 20.1744C6.89213 20.1327 6.84193 20.1019 6.78651 20.0848C6.73109 20.0678 6.67224 20.065 6.61547 20.0768C6.55869 20.0886 6.50582 20.1146 6.4618 20.1524C6.41778 20.1901 6.38403 20.2384 6.3637 20.2927C4.57307 25.124 -1.86306 22.286 0.524449 17.8714C0.824764 17.3196 1.52112 16.794 2.61352 16.2948C2.88755 16.1709 2.9082 16.0113 2.67546 15.8161ZM1.96033 14.3014C2.29818 14.8195 2.69235 15.2756 3.14282 15.6697C3.20181 15.7219 3.27264 15.759 3.34918 15.7776C3.42571 15.7963 3.50564 15.7959 3.58203 15.7767C5.02917 15.4163 6.5833 14.2338 5.55848 12.522C4.21269 10.2809 0.699007 12.3587 1.96033 14.3014ZM5.89633 19.1215L3.75659 16.931C3.53686 16.7059 3.23681 16.5771 2.92224 16.5729C2.60767 16.5686 2.30427 16.6894 2.07858 16.9085L1.23394 17.7306C0.97634 17.9817 0.769937 18.2802 0.62654 18.6091C0.483143 18.9381 0.405565 19.291 0.398243 19.6476C0.390922 20.0043 0.454 20.3578 0.58387 20.6878C0.71374 21.0178 0.907854 21.3179 1.15511 21.5709L1.19453 21.6103C1.4413 21.8637 1.73642 22.0651 2.06302 22.2031C2.38962 22.3411 2.7413 22.413 3.09796 22.4145C3.45461 22.4161 3.80924 22.3474 4.14158 22.2123C4.47392 22.0772 4.77744 21.8784 5.03481 21.6272L5.87944 20.8051C5.99139 20.6958 6.08066 20.5655 6.14212 20.4217C6.20358 20.2778 6.23603 20.1232 6.2376 19.9668C6.23917 19.8104 6.20983 19.6552 6.15127 19.5101C6.0927 19.365 6.00607 19.233 5.89633 19.1215Z" fill="black"/>
<path d="M43.4995 17.832C45.7688 19.0145 45.4253 22.1903 42.852 22.7309C41.8797 22.9336 40.8324 22.9617 39.7099 22.8153C39.4847 22.7815 39.3721 22.652 39.3721 22.4268L39.3665 13.361C39.3665 13.1283 39.4828 12.9932 39.7156 12.9556C40.8493 12.7867 41.8609 12.8486 42.7506 13.1414C44.5863 13.7383 45.0818 16.1089 43.4545 17.3421C43.2105 17.526 43.2255 17.6893 43.4995 17.832ZM39.7719 13.5412L39.7944 17.2464C39.7951 17.276 39.8017 17.3051 39.8137 17.3321C39.8257 17.3592 39.8429 17.3836 39.8643 17.404C39.8858 17.4244 39.911 17.4404 39.9386 17.451C39.9663 17.4616 39.9957 17.4667 40.0253 17.466L41.8272 17.4547C42.4213 17.4499 42.9893 17.2348 43.4064 16.8568C43.8235 16.4788 44.0555 15.9688 44.0514 15.4388V15.2812C44.0494 15.0186 43.9894 14.7589 43.8748 14.5172C43.7602 14.2754 43.5933 14.0562 43.3836 13.8721C43.1739 13.6881 42.9255 13.5427 42.6527 13.4444C42.3798 13.3461 42.0878 13.2967 41.7934 13.2991L39.9915 13.3104C39.9619 13.3111 39.9328 13.3176 39.9057 13.3296C39.8787 13.3416 39.8542 13.3589 39.8338 13.3803C39.8135 13.4017 39.7975 13.427 39.7869 13.4546C39.7762 13.4822 39.7711 13.5117 39.7719 13.5412ZM39.7719 18.1135L39.7831 22.1903C39.7846 22.2745 39.8191 22.3546 39.8791 22.4136C39.9392 22.4726 40.0199 22.5056 40.1041 22.5056L41.8722 22.5C42.2371 22.499 42.5983 22.4386 42.9351 22.3223C43.2719 22.2059 43.5777 22.0359 43.835 21.822C44.0923 21.6081 44.2961 21.3545 44.4347 21.0757C44.5733 20.7968 44.6439 20.4982 44.6426 20.197V20.0618C44.64 19.4546 44.3456 18.8734 43.824 18.4458C43.3025 18.0183 42.5965 17.7793 41.8609 17.7813L40.0928 17.7869C40.0502 17.7869 40.008 17.7954 39.9687 17.8119C39.9294 17.8284 39.8938 17.8525 39.8639 17.8829C39.834 17.9133 39.8105 17.9494 39.7947 17.989C39.7789 18.0286 39.7711 18.0709 39.7719 18.1135Z" fill="black"/>
<path d="M54.6599 18.1304L54.6036 22.3817C54.6036 22.4086 54.6143 22.4344 54.6333 22.4534C54.6523 22.4724 54.6781 22.4831 54.705 22.4831H59.5194C59.5463 22.4831 59.5721 22.4938 59.5911 22.5128C59.6101 22.5318 59.6207 22.5576 59.6207 22.5845L59.6151 22.7872C59.6151 22.814 59.6044 22.8398 59.5854 22.8588C59.5664 22.8778 59.5406 22.8885 59.5138 22.8885L54.3502 22.8716C54.3233 22.8716 54.2976 22.8609 54.2785 22.8419C54.2595 22.8229 54.2489 22.7972 54.2489 22.7703L54.2207 13.0232C54.2207 12.9963 54.2314 12.9705 54.2504 12.9515C54.2694 12.9325 54.2952 12.9218 54.3221 12.9218L59.5081 12.888C59.535 12.888 59.5608 12.8987 59.5798 12.9177C59.5988 12.9367 59.6095 12.9625 59.6095 12.9894V13.209C59.6095 13.2359 59.5988 13.2617 59.5798 13.2807C59.5608 13.2997 59.535 13.3103 59.5081 13.3103L54.6881 13.2878C54.6612 13.2878 54.6354 13.2985 54.6164 13.3175C54.5974 13.3365 54.5867 13.3623 54.5867 13.3892L54.6318 17.4941C54.6318 17.5074 54.6344 17.5206 54.6395 17.5329C54.6446 17.5452 54.652 17.5564 54.6614 17.5658C54.6709 17.5752 54.682 17.5827 54.6943 17.5878C54.7066 17.5928 54.7198 17.5955 54.7331 17.5955L59.4912 17.6124C59.5181 17.6124 59.5439 17.623 59.5629 17.642C59.5819 17.6611 59.5926 17.6868 59.5926 17.7137L59.5982 17.9164C59.5982 17.9433 59.5875 17.9691 59.5685 17.9881C59.5495 18.0071 59.5237 18.0178 59.4969 18.0178L54.7613 18.029C54.7344 18.029 54.7086 18.0397 54.6896 18.0587C54.6706 18.0777 54.6599 18.1035 54.6599 18.1304Z" fill="black"/>
<path d="M46.5455 12.9725L46.523 12.9726C46.4204 12.9729 46.3374 13.0564 46.3378 13.159L46.3708 22.6189C46.3712 22.7215 46.4547 22.8044 46.5573 22.8041L46.5798 22.804C46.6824 22.8036 46.7653 22.7201 46.765 22.6175L46.732 13.1576C46.7316 13.055 46.6481 12.9721 46.5455 12.9725Z" fill="black"/>
<path d="M49.3107 22.4606L53.213 22.5113C53.2359 22.5112 53.258 22.5199 53.2748 22.5356C53.2915 22.5513 53.3016 22.5728 53.303 22.5957L53.3087 22.7984C53.3095 22.8107 53.3077 22.8231 53.3035 22.8346C53.2993 22.8462 53.2928 22.8568 53.2844 22.8658C53.2759 22.8748 53.2657 22.8819 53.2544 22.8868C53.2431 22.8917 53.2309 22.8942 53.2186 22.8942L48.894 22.8378C48.8702 22.8378 48.8472 22.8284 48.8303 22.8115C48.8134 22.7946 48.804 22.7716 48.804 22.7478V13.0964C48.804 13.0725 48.8134 13.0496 48.8303 13.0327C48.8472 13.0158 48.8702 13.0063 48.894 13.0063H49.1193C49.1432 13.0063 49.1661 13.0158 49.183 13.0327C49.1999 13.0496 49.2094 13.0725 49.2094 13.0964L49.2206 22.3705C49.2206 22.3944 49.2301 22.4173 49.247 22.4342C49.2639 22.4511 49.2868 22.4606 49.3107 22.4606Z" fill="black"/>
<path d="M23.6056 33.0805C23.699 33.0476 23.7825 32.9921 23.8484 32.9193C23.9143 32.8465 23.9606 32.7586 23.9828 32.6638C24.1255 32.0894 23.9078 31.6878 23.3297 31.4588C21.7023 30.8168 17.7438 29.8821 19.0445 27.1568C20.227 24.6848 24.0504 24.8593 25.8748 26.177C26.4773 26.6106 26.5956 27.1849 26.849 27.8437C26.8681 27.894 26.8748 27.9481 26.8684 28.0015C26.862 28.0549 26.8427 28.1059 26.8123 28.1502C26.7818 28.1945 26.7411 28.2307 26.6935 28.2558C26.646 28.2809 26.593 28.2941 26.5393 28.2942L24.3151 28.3055C24.1574 28.3055 24.0467 28.2323 23.9828 28.0859C23.6675 27.3388 23.0763 27.1155 22.2091 27.4158C22.058 27.4686 21.9318 27.5755 21.8548 27.7159C21.7779 27.8562 21.7556 28.0201 21.7924 28.1759C21.86 28.4725 22.0421 28.6809 22.3386 28.801C23.2921 29.1839 24.225 29.5593 25.1372 29.9272C27.4627 30.8675 27.6092 33.7224 25.3681 34.7979C22.913 35.9691 18.8531 35.4736 18.504 31.9937C18.4927 31.8811 18.5434 31.8248 18.656 31.8248L21.2124 31.8135C21.3176 31.8135 21.3832 31.8642 21.4095 31.9655C21.7324 33.1293 22.4644 33.5009 23.6056 33.0805Z" fill="black"/>
<path d="M38.3641 30.2706C38.3641 31.6147 37.8166 32.9037 36.8419 33.8541C35.8672 34.8045 34.5452 35.3385 33.1668 35.3385C31.7884 35.3385 30.4664 34.8045 29.4917 33.8541C28.5171 32.9037 27.9695 31.6147 27.9695 30.2706C27.9695 28.9266 28.5171 27.6375 29.4917 26.6871C30.4664 25.7367 31.7884 25.2028 33.1668 25.2028C34.5452 25.2028 35.8672 25.7367 36.8419 26.6871C37.8166 27.6375 38.3641 28.9266 38.3641 30.2706ZM33.4017 33.1215C34.1131 33.063 34.7707 32.706 35.2297 32.1289C35.6887 31.5518 35.9116 30.802 35.8493 30.0444C35.787 29.2869 35.4447 28.5835 34.8976 28.0892C34.3504 27.5949 33.6434 27.35 32.9319 27.4085C32.2205 27.467 31.5629 27.8241 31.1039 28.4011C30.6449 28.9782 30.422 29.728 30.4843 30.4856C30.5466 31.2432 30.8889 31.9465 31.4361 32.4408C31.9832 32.9351 32.6902 33.18 33.4017 33.1215Z" fill="black"/>
<path d="M78.0621 30.2616C78.0633 30.9271 77.9301 31.5863 77.6703 32.2016C77.4105 32.817 77.029 33.3763 76.5478 33.8477C76.0665 34.3192 75.4948 34.6934 74.8654 34.9492C74.2359 35.205 73.561 35.3373 72.8793 35.3385C72.1975 35.3397 71.5221 35.2097 70.8918 34.9562C70.2615 34.7026 69.6885 34.3303 69.2056 33.8605C68.7227 33.3908 68.3393 32.8328 68.0773 32.2184C67.8153 31.604 67.6799 30.9452 67.6787 30.2797C67.6776 29.6142 67.8107 28.955 68.0705 28.3396C68.3304 27.7243 68.7118 27.165 69.1931 26.6936C69.6743 26.2221 70.246 25.8478 70.8755 25.5921C71.5049 25.3363 72.1798 25.204 72.8616 25.2028C73.5434 25.2016 74.2187 25.3315 74.849 25.5851C75.4794 25.8387 76.0523 26.211 76.5352 26.6807C77.0182 27.1505 77.4016 27.7085 77.6635 28.3229C77.9255 28.9373 78.061 29.5961 78.0621 30.2616ZM73.0803 33.1291C73.4329 33.1032 73.7765 33.0036 74.0916 32.836C74.4067 32.6685 74.6872 32.4362 74.917 32.1525C75.1468 31.8687 75.3213 31.5391 75.4308 31.1824C75.5402 30.8257 75.5823 30.4489 75.5548 30.0735C75.5272 29.6981 75.4305 29.3315 75.2701 28.9946C75.1097 28.6577 74.8889 28.3572 74.6201 28.11C74.3513 27.8629 74.04 27.6741 73.7037 27.5544C73.3675 27.4346 73.013 27.3863 72.6605 27.4122C72.308 27.4381 71.9643 27.5377 71.6492 27.7052C71.3341 27.8728 71.0536 28.1051 70.8239 28.3888C70.5941 28.6726 70.4195 29.0022 70.3101 29.3589C70.2006 29.7156 70.1585 30.0924 70.1861 30.4678C70.2136 30.8432 70.3104 31.2098 70.4707 31.5467C70.6311 31.8835 70.852 32.1841 71.1207 32.4313C71.3895 32.6784 71.7009 32.8672 72.0371 32.9869C72.3733 33.1067 72.7278 33.155 73.0803 33.1291Z" fill="black"/>
<path d="M42.2552 32.951L44.7779 32.9453C44.8361 32.9453 44.892 32.9685 44.9331 33.0096C44.9743 33.0508 44.9975 33.1067 44.9975 33.1649L44.9918 34.9781C44.9918 35.0363 44.9687 35.0922 44.9275 35.1334C44.8863 35.1745 44.8305 35.1977 44.7722 35.1977H39.7269C39.6981 35.1977 39.6695 35.192 39.6429 35.181C39.6162 35.1699 39.592 35.1538 39.5716 35.1334C39.5513 35.113 39.5351 35.0888 39.524 35.0621C39.513 35.0355 39.5073 35.0069 39.5073 34.9781V25.5688C39.5073 25.54 39.513 25.5114 39.524 25.4848C39.5351 25.4582 39.5513 25.4339 39.5716 25.4135C39.592 25.3932 39.6162 25.377 39.6429 25.3659C39.6695 25.3549 39.6981 25.3492 39.7269 25.3492L41.8216 25.3436C41.8799 25.3436 41.9357 25.3667 41.9769 25.4079C42.0181 25.4491 42.0412 25.505 42.0412 25.5632L42.0356 32.7313C42.0356 32.7896 42.0587 32.8454 42.0999 32.8866C42.1411 32.9278 42.197 32.951 42.2552 32.951Z" fill="black"/>
<path d="M49.9751 33.0917L50.1722 33.103C51.0393 33.1368 51.4729 32.7201 51.4729 31.8529V25.6251C51.4729 25.4374 51.5667 25.3436 51.7544 25.3436L53.7421 25.3492C53.9374 25.3492 54.0312 25.4468 54.0237 25.642C53.9711 27.1399 53.9749 28.6921 54.035 30.2988C54.1419 33.1311 53.3142 35.3666 50.0764 35.299C47.6777 35.2502 46.4558 33.9401 46.4107 31.3687C46.3807 29.4166 46.3807 27.4965 46.4107 25.6083C46.4145 25.4318 46.5046 25.3436 46.681 25.3436L48.6631 25.3492C48.847 25.3492 48.939 25.4431 48.939 25.6308V32.0106C48.939 32.7051 49.2843 33.0654 49.9751 33.0917Z" fill="black"/>
<path d="M60.0545 27.793L60.0601 34.995C60.0601 35.0223 60.0548 35.0494 60.0443 35.0747C60.0338 35.1 60.0185 35.1229 59.9991 35.1423C59.9798 35.1616 59.9568 35.177 59.9315 35.1875C59.9063 35.1979 59.8792 35.2033 59.8518 35.2033L57.7402 35.1921C57.685 35.1921 57.632 35.1701 57.5929 35.131C57.5538 35.092 57.5319 35.039 57.5319 34.9837L57.5262 27.7761C57.5262 27.7483 57.5207 27.7207 57.5099 27.6951C57.499 27.6694 57.4832 27.6462 57.4632 27.6268C57.4433 27.6074 57.4197 27.5922 57.3937 27.582C57.3678 27.5719 57.3401 27.5671 57.3123 27.5678L55.775 27.6016C55.7472 27.6023 55.7195 27.5975 55.6936 27.5874C55.6676 27.5772 55.644 27.562 55.624 27.5426C55.6041 27.5232 55.5883 27.5 55.5774 27.4743C55.5666 27.4486 55.561 27.4211 55.5611 27.3932L55.5554 25.5519C55.5554 25.4967 55.5774 25.4437 55.6164 25.4046C55.6555 25.3655 55.7085 25.3436 55.7638 25.3436L61.817 25.3492C61.8722 25.3492 61.9252 25.3712 61.9643 25.4103C62.0034 25.4493 62.0253 25.5023 62.0253 25.5576L62.031 27.3932C62.031 27.4485 62.009 27.5015 61.9699 27.5406C61.9309 27.5796 61.8779 27.6016 61.8226 27.6016L60.2629 27.5847C60.2355 27.5847 60.2084 27.5901 60.1831 27.6006C60.1579 27.611 60.1349 27.6264 60.1155 27.6457C60.0962 27.6651 60.0808 27.688 60.0704 27.7133C60.0599 27.7386 60.0545 27.7657 60.0545 27.793Z" fill="black"/>
<path d="M65.9331 25.3436H63.7595C63.66 25.3436 63.5793 25.4243 63.5793 25.5238V35.0175C63.5793 35.117 63.66 35.1977 63.7595 35.1977H65.9331C66.0326 35.1977 66.1133 35.117 66.1133 35.0175V25.5238C66.1133 25.4243 66.0326 25.3436 65.9331 25.3436Z" fill="black"/>
<path d="M85.6751 30.9464L85.6864 25.6195C85.6864 25.4356 85.7784 25.3436 85.9623 25.3436L87.7924 25.3492C87.9801 25.3492 88.0739 25.4412 88.0739 25.6251V34.9161C88.0739 35.1001 87.9801 35.1939 87.7924 35.1977L86.1988 35.2033C85.9923 35.2033 85.8347 35.117 85.7258 34.9443L82.4148 29.6062C82.2422 29.3284 82.1558 29.3547 82.1558 29.685L82.1614 34.9161C82.1614 35.1038 82.0676 35.1977 81.8799 35.1977H80.0499C79.8622 35.1977 79.7683 35.1038 79.7683 34.9161V25.6927C79.7683 25.46 79.8866 25.3436 80.1231 25.3436H81.604C81.8292 25.3436 82 25.4412 82.1164 25.6364L85.3936 31.0252C85.5813 31.3368 85.6751 31.3105 85.6751 30.9464Z" fill="black"/>
<path d="M86.5591 7.20084L85.2245 10.2303C85.1945 10.2941 85.1757 10.3241 85.1682 10.3204L84.9937 10.264C84.8848 10.2265 84.8529 10.1533 84.898 10.0444L88.8846 0.697138C88.9151 0.624411 88.9663 0.562302 89.0319 0.518619C89.0976 0.474936 89.1746 0.45163 89.2535 0.45163C89.3323 0.45163 89.4094 0.474936 89.475 0.518619C89.5406 0.562302 89.5919 0.624411 89.6223 0.697138L93.6765 10.1571C93.7103 10.2359 93.6897 10.296 93.6146 10.3373L93.4851 10.3992C93.4588 10.4142 93.4382 10.4086 93.4231 10.3823L92.0267 7.33598C91.9646 7.20314 91.866 7.09074 91.7423 7.01196C91.6186 6.93317 91.4751 6.89126 91.3284 6.89114L87.0095 6.90803C86.7956 6.90803 86.6454 7.00563 86.5591 7.20084ZM86.9983 6.14786C86.9822 6.18412 86.9755 6.22384 86.9789 6.26336C86.9822 6.30288 86.9954 6.34093 87.0172 6.37402C87.0391 6.4071 87.0689 6.43416 87.104 6.45269C87.1391 6.47122 87.1782 6.48064 87.2179 6.48008H91.3059C91.3456 6.48064 91.3847 6.47122 91.4198 6.45269C91.4549 6.43416 91.4847 6.4071 91.5066 6.37402C91.5284 6.34093 91.5416 6.30288 91.5449 6.26336C91.5483 6.22384 91.5416 6.18412 91.5255 6.14786L89.4815 1.30528C89.464 1.26138 89.4337 1.22374 89.3945 1.19723C89.3554 1.17072 89.3092 1.15656 89.2619 1.15656C89.2146 1.15656 89.1684 1.17072 89.1293 1.19723C89.0901 1.22374 89.0598 1.26138 89.0423 1.30528L86.9983 6.14786Z" fill="black"/>
<path d="M96.5089 1.39536L96.5258 10.1176C96.5258 10.1595 96.5086 10.1996 96.478 10.2291C96.4474 10.2587 96.4059 10.2753 96.3625 10.2753L96.1823 10.2809C96.1298 10.2809 96.1035 10.2528 96.1035 10.1965L96.0979 1.3841C96.0979 1.08378 95.9459 0.931749 95.6418 0.927995C94.9736 0.920487 94.2941 0.914857 93.6034 0.911103C93.5171 0.911103 93.4701 0.867932 93.4626 0.781592L93.4401 0.607034C93.4363 0.561987 93.4589 0.537586 93.5077 0.533832C95.1894 0.481277 96.9707 0.486908 98.8514 0.550724C99.4182 0.569494 99.4314 0.661466 98.8908 0.826639C98.3991 0.973043 97.7797 1.00495 97.0326 0.922365C96.6798 0.884825 96.5052 1.04249 96.5089 1.39536Z" fill="black"/>
<path d="M100.408 0.505714L100.397 0.505694C100.285 0.505499 100.194 0.596098 100.194 0.708053L100.178 10.0779C100.177 10.1898 100.268 10.2807 100.38 10.2809L100.391 10.281C100.503 10.2811 100.594 10.1905 100.594 10.0786L100.611 0.708781C100.611 0.596826 100.52 0.505909 100.408 0.505714Z" fill="black"/>
<path d="M13.5206 13.8172C15.3526 12.3344 17.1601 12.4414 18.9432 14.1381C19.037 14.2245 19.129 14.2245 19.2191 14.1381C21.8487 11.6662 26.4098 12.7417 26.6294 16.6833C26.7232 18.4214 26.7383 20.4166 26.6744 22.669C26.6707 22.7591 26.6238 22.8041 26.5337 22.8041H24.3038C24.21 22.8041 24.1631 22.7591 24.1631 22.669V17.1619C24.1631 15.8556 23.5117 15.1442 22.2091 15.0278C22.0102 15.0128 21.8131 15.0297 21.6179 15.0785C20.5931 15.3413 20.0806 16.0001 20.0806 17.0549V22.5226C20.0806 22.7103 19.9887 22.8041 19.8047 22.8041L17.8339 22.8097C17.6425 22.8135 17.5467 22.7196 17.5467 22.5282V16.9085C17.5468 16.4241 17.3559 15.9591 17.0154 15.6144C16.675 15.2698 16.2124 15.0732 15.728 15.0672L15.4464 15.0616C14.1213 15.0466 13.4606 15.7016 13.4643 17.0268V22.5282C13.4643 22.7121 13.3705 22.8041 13.1828 22.8041L11.212 22.8097C11.0243 22.8097 10.9304 22.7159 10.9304 22.5282V13.378C10.9304 13.1903 11.0243 13.0964 11.212 13.0964H12.9125C13.104 13.0964 13.1959 13.1921 13.1884 13.3836L13.1772 13.6426C13.1621 13.9579 13.2766 14.0161 13.5206 13.8172Z" fill="#FF6900"/>
<path d="M38.2178 17.8645C38.2225 19.2086 37.68 20.4995 36.7097 21.4533C35.7394 22.4071 34.4207 22.9456 33.0438 22.9504C31.6669 22.9552 30.3446 22.4259 29.3676 21.4789C28.3907 20.5319 27.8392 19.2449 27.8345 17.9008C27.8298 16.5567 28.3723 15.2658 29.3426 14.312C30.3129 13.3583 31.6316 12.8197 33.0085 12.8149C34.3854 12.8101 35.7077 13.3394 36.6847 14.2864C37.6616 15.2334 38.2131 16.5205 38.2178 17.8645ZM33.241 20.7408C33.5935 20.7142 33.9369 20.6141 34.2518 20.446C34.5666 20.2778 34.8467 20.0451 35.076 19.7609C35.3052 19.4768 35.4792 19.1469 35.5881 18.79C35.6969 18.4331 35.7383 18.0562 35.7101 17.6809C35.6531 16.9229 35.3157 16.2172 34.7721 15.719C34.2284 15.2209 33.5231 14.9711 32.8113 15.0246C32.4588 15.0511 32.1153 15.1513 31.8005 15.3194C31.4857 15.4875 31.2056 15.7203 30.9763 16.0044C30.7471 16.2885 30.573 16.6185 30.4642 16.9754C30.3554 17.3323 30.3139 17.7092 30.3422 18.0845C30.3992 18.8425 30.7366 19.5482 31.2802 20.0463C31.8239 20.5445 32.5292 20.7943 33.241 20.7408Z" fill="#FF6900"/>
<path d="M24.0618 3.86172C23.5268 2.48778 21.7587 2.2006 20.5762 2.82C18.6617 3.81667 18.8025 7.40356 20.9591 8.04549C22.3368 8.45466 23.371 8.07739 24.0618 6.91367C24.1781 6.71847 24.3489 6.62087 24.5742 6.62087H26.5506C26.7683 6.62087 26.8415 6.72598 26.7702 6.9362C25.8355 9.68408 22.761 11.1143 20.1258 10.0895C16.2292 8.58042 15.4577 3.69842 18.9095 1.23209C21.7531 -0.806301 25.4695 0.488808 26.759 3.75473C26.8791 4.06631 26.7721 4.2221 26.438 4.2221L24.5967 4.22773C24.3339 4.22773 24.1556 4.10573 24.0618 3.86172Z" fill="#B3193E"/>
<path d="M38.3643 5.3811C38.3609 6.04661 38.223 6.7049 37.9586 7.31838C37.6942 7.93187 37.3084 8.48853 36.8233 8.95659C36.3383 9.42465 35.7634 9.79494 35.1315 10.0463C34.4996 10.2977 33.8231 10.4252 33.1405 10.4217C32.458 10.4181 31.7829 10.2835 31.1537 10.0255C30.5244 9.76752 29.9534 9.39123 29.4733 8.91812C28.9931 8.44501 28.6132 7.88434 28.3553 7.26813C28.0973 6.65191 27.9663 5.99222 27.9698 5.32671C27.9733 4.6612 28.1112 4.00291 28.3756 3.38943C28.64 2.77594 29.0257 2.21928 29.5108 1.75122C29.9959 1.28316 30.5708 0.912871 31.2027 0.661492C31.8346 0.410114 32.5111 0.282571 33.1936 0.286145C33.8761 0.289715 34.5512 0.424332 35.1805 0.68231C35.8097 0.940288 36.3807 1.31657 36.8608 1.78969C37.341 2.2628 37.7209 2.82347 37.9789 3.43968C38.2368 4.0559 38.3678 4.71559 38.3643 5.3811ZM35.9431 5.3539C35.9431 4.61765 35.6506 3.91156 35.13 3.39095C34.6094 2.87034 33.9033 2.57787 33.1671 2.57787C32.4308 2.57787 31.7247 2.87034 31.2041 3.39095C30.6835 3.91156 30.391 4.61765 30.391 5.3539C30.391 5.71846 30.4628 6.07944 30.6023 6.41625C30.7418 6.75305 30.9463 7.05908 31.2041 7.31686C31.7247 7.83747 32.4308 8.12994 33.1671 8.12994C33.5316 8.12994 33.8926 8.05814 34.2294 7.91863C34.5662 7.77912 34.8722 7.57464 35.13 7.31686C35.3878 7.05908 35.5923 6.75305 35.7318 6.41625C35.8713 6.07944 35.9431 5.71846 35.9431 5.3539Z" fill="#B3193E"/>
</svg>
