<svg width="162" height="52" viewBox="0 0 162 52" fill="none" xmlns="http://www.w3.org/2000/svg">
<path d="M69.1493 8.17639H67.3831C67.3151 7.79898 67.1887 7.46686 67.0038 7.18004C66.8189 6.89321 66.5924 6.64978 66.3245 6.44976C66.0565 6.24973 65.7565 6.09877 65.4243 5.99687C65.096 5.89497 64.7469 5.84402 64.377 5.84402C63.709 5.84402 63.1108 6.01197 62.5825 6.34786C62.0579 6.68375 61.6427 7.17626 61.337 7.8254C61.0351 8.47454 60.8842 9.26709 60.8842 10.2031C60.8842 11.1466 61.0351 11.9429 61.337 12.592C61.6427 13.2412 62.0598 13.7318 62.5881 14.0639C63.1165 14.396 63.7109 14.5621 64.3714 14.5621C64.7375 14.5621 65.0847 14.513 65.413 14.4149C65.7451 14.313 66.0452 14.1639 66.3131 13.9677C66.5811 13.7714 66.8075 13.5318 66.9925 13.2487C67.1812 12.9619 67.3114 12.6335 67.3831 12.2637L69.1493 12.2693C69.055 12.8392 68.8719 13.3638 68.6002 13.8431C68.3323 14.3187 67.9869 14.73 67.5642 15.0772C67.1453 15.4207 66.666 15.6868 66.1263 15.8755C65.5866 16.0642 64.9979 16.1585 64.3601 16.1585C63.3562 16.1585 62.4617 15.9207 61.6767 15.4452C60.8917 14.9659 60.2728 14.2809 59.8199 13.3902C59.3708 12.4996 59.1462 11.4372 59.1462 10.2031C59.1462 8.96516 59.3726 7.90277 59.8255 7.01586C60.2784 6.12519 60.8974 5.44208 61.6824 4.96655C62.4674 4.48725 63.3599 4.2476 64.3601 4.2476C64.9752 4.2476 65.5489 4.33629 66.081 4.51367C66.6169 4.68727 67.0981 4.94391 67.5246 5.28357C67.9511 5.61946 68.3039 6.03084 68.5832 6.51769C68.8625 7.00077 69.0512 7.55367 69.1493 8.17639ZM73.8129 16.1755C72.9977 16.1755 72.2863 15.9887 71.6787 15.615C71.071 15.2414 70.5993 14.7187 70.2634 14.0469C69.9275 13.3751 69.7595 12.5901 69.7595 11.6919C69.7595 10.7899 69.9275 10.0011 70.2634 9.32558C70.5993 8.65003 71.071 8.12544 71.6787 7.7518C72.2863 7.37817 72.9977 7.19136 73.8129 7.19136C74.6281 7.19136 75.3395 7.37817 75.9471 7.7518C76.5547 8.12544 77.0265 8.65003 77.3624 9.32558C77.6983 10.0011 77.8662 10.7899 77.8662 11.6919C77.8662 12.5901 77.6983 13.3751 77.3624 14.0469C77.0265 14.7187 76.5547 15.2414 75.9471 15.615C75.3395 15.9887 74.6281 16.1755 73.8129 16.1755ZM73.8185 14.7546C74.3469 14.7546 74.7847 14.6149 75.1319 14.3356C75.4791 14.0564 75.7358 13.6846 75.9018 13.2204C76.0717 12.7562 76.1566 12.2448 76.1566 11.6863C76.1566 11.1315 76.0717 10.622 75.9018 10.1578C75.7358 9.68978 75.4791 9.31426 75.1319 9.03121C74.7847 8.74815 74.3469 8.60663 73.8185 8.60663C73.2864 8.60663 72.8448 8.74815 72.4938 9.03121C72.1466 9.31426 71.8881 9.68978 71.7183 10.1578C71.5522 10.622 71.4692 11.1315 71.4692 11.6863C71.4692 12.2448 71.5522 12.7562 71.7183 13.2204C71.8881 13.6846 72.1466 14.0564 72.4938 14.3356C72.8448 14.6149 73.2864 14.7546 73.8185 14.7546ZM80.4918 4.40611V16H78.7991V4.40611H80.4918ZM83.5051 4.40611V16H81.8124V4.40611H83.5051ZM87.3563 16.1925C86.8053 16.1925 86.3071 16.0906 85.8618 15.8868C85.4164 15.6792 85.0635 15.3792 84.8031 14.9867C84.5465 14.5942 84.4182 14.113 84.4182 13.5431C84.4182 13.0525 84.5125 12.6486 84.7012 12.3316C84.8899 12.0146 85.1447 11.7636 85.4655 11.5787C85.7863 11.3938 86.1448 11.2541 86.5411 11.1598C86.9374 11.0654 87.3412 10.9937 87.7526 10.9447C88.2734 10.8843 88.6961 10.8352 89.0206 10.7975C89.3452 10.756 89.5811 10.6899 89.7283 10.5993C89.8755 10.5088 89.9491 10.3616 89.9491 10.1578V10.1181C89.9491 9.62374 89.8094 9.24067 89.5301 8.96894C89.2546 8.6972 88.8433 8.56134 88.296 8.56134C87.7261 8.56134 87.277 8.68777 86.9487 8.94063C86.6241 9.18972 86.3996 9.46711 86.275 9.77281L84.6842 9.4105C84.873 8.88213 85.1485 8.45567 85.5108 8.1311C85.8769 7.80275 86.2977 7.56499 86.7732 7.4178C87.2487 7.26684 87.7488 7.19136 88.2734 7.19136C88.6206 7.19136 88.9886 7.23287 89.3773 7.3159C89.7698 7.39516 90.1359 7.54234 90.4755 7.75747C90.819 7.97259 91.1001 8.28017 91.319 8.68022C91.5379 9.0765 91.6474 9.59166 91.6474 10.2257V16H89.9943V14.8112H89.9264C89.817 15.0301 89.6528 15.2452 89.4339 15.4565C89.215 15.6679 88.9338 15.8434 88.5904 15.983C88.247 16.1227 87.8356 16.1925 87.3563 16.1925ZM87.7242 14.8338C88.1922 14.8338 88.5923 14.7414 88.9244 14.5564C89.2603 14.3715 89.515 14.13 89.6886 13.8318C89.866 13.5299 89.9547 13.2072 89.9547 12.8638V11.7429C89.8943 11.8033 89.7773 11.8599 89.6037 11.9127C89.4339 11.9618 89.2395 12.0052 89.0206 12.0429C88.8017 12.0769 88.5885 12.109 88.3809 12.1391C88.1734 12.1656 87.9998 12.1882 87.8601 12.2071C87.5318 12.2486 87.2317 12.3184 86.96 12.4165C86.692 12.5147 86.4769 12.6562 86.3146 12.8411C86.1561 13.0223 86.0769 13.2638 86.0769 13.5657C86.0769 13.9847 86.2316 14.3017 86.5411 14.5168C86.8506 14.7281 87.2449 14.8338 87.7242 14.8338ZM93.0813 16V4.40611H94.7739V8.71419H94.8758C94.974 8.53303 95.1155 8.32357 95.3004 8.08581C95.4853 7.84804 95.742 7.64047 96.0703 7.46309C96.3987 7.28193 96.8327 7.19136 97.3724 7.19136C98.0743 7.19136 98.7008 7.36874 99.2519 7.7235C99.8029 8.07826 100.235 8.58964 100.548 9.25765C100.865 9.92566 101.024 10.7295 101.024 11.6693C101.024 12.609 100.867 13.4148 100.554 14.0866C100.241 14.7546 99.8104 15.2697 99.2632 15.632C98.7159 15.9906 98.0913 16.1698 97.3894 16.1698C96.861 16.1698 96.4289 16.0811 96.093 15.9038C95.7609 15.7264 95.5004 15.5188 95.3117 15.281C95.123 15.0433 94.9777 14.8319 94.8758 14.647H94.7343V16H93.0813ZM94.74 11.6523C94.74 12.2637 94.8287 12.7996 95.006 13.26C95.1834 13.7205 95.4401 14.0809 95.7759 14.3413C96.1118 14.5979 96.5232 14.7263 97.0101 14.7263C97.5158 14.7263 97.9385 14.5923 98.2781 14.3243C98.6178 14.0526 98.8744 13.6846 99.0481 13.2204C99.2254 12.7562 99.3141 12.2335 99.3141 11.6523C99.3141 11.0786 99.2273 10.5635 99.0537 10.1068C98.8839 9.65015 98.6272 9.28973 98.2838 9.02555C97.9441 8.76136 97.5196 8.62927 97.0101 8.62927C96.5194 8.62927 96.1043 8.7557 95.7646 9.00856C95.4287 9.26143 95.174 9.6143 95.0004 10.0672C94.8268 10.5201 94.74 11.0484 94.74 11.6523ZM105.631 16.1755C104.816 16.1755 104.104 15.9887 103.496 15.615C102.889 15.2414 102.417 14.7187 102.081 14.0469C101.745 13.3751 101.577 12.5901 101.577 11.6919C101.577 10.7899 101.745 10.0011 102.081 9.32558C102.417 8.65003 102.889 8.12544 103.496 7.7518C104.104 7.37817 104.816 7.19136 105.631 7.19136C106.446 7.19136 107.157 7.37817 107.765 7.7518C108.373 8.12544 108.844 8.65003 109.18 9.32558C109.516 10.0011 109.684 10.7899 109.684 11.6919C109.684 12.5901 109.516 13.3751 109.18 14.0469C108.844 14.7187 108.373 15.2414 107.765 15.615C107.157 15.9887 106.446 16.1755 105.631 16.1755ZM105.636 14.7546C106.165 14.7546 106.603 14.6149 106.95 14.3356C107.297 14.0564 107.554 13.6846 107.72 13.2204C107.889 12.7562 107.974 12.2448 107.974 11.6863C107.974 11.1315 107.889 10.622 107.72 10.1578C107.554 9.68978 107.297 9.31426 106.95 9.03121C106.603 8.74815 106.165 8.60663 105.636 8.60663C105.104 8.60663 104.663 8.74815 104.312 9.03121C103.964 9.31426 103.706 9.68978 103.536 10.1578C103.37 10.622 103.287 11.1315 103.287 11.6863C103.287 12.2448 103.37 12.7562 103.536 13.2204C103.706 13.6846 103.964 14.0564 104.312 14.3356C104.663 14.6149 105.104 14.7546 105.636 14.7546ZM110.617 16V7.30458H112.253V8.68588H112.344C112.502 8.2179 112.781 7.84993 113.181 7.58197C113.585 7.31024 114.042 7.17437 114.551 7.17437C114.657 7.17437 114.782 7.17815 114.925 7.1857C115.072 7.19324 115.187 7.20268 115.27 7.214V8.83307C115.202 8.8142 115.082 8.79344 114.908 8.7708C114.734 8.74438 114.561 8.73117 114.387 8.73117C113.987 8.73117 113.631 8.81609 113.317 8.98592C113.008 9.15198 112.762 9.38408 112.581 9.68223C112.4 9.97661 112.31 10.3125 112.31 10.6899V16H110.617ZM118.231 16.1925C117.68 16.1925 117.182 16.0906 116.737 15.8868C116.291 15.6792 115.939 15.3792 115.678 14.9867C115.422 14.5942 115.293 14.113 115.293 13.5431C115.293 13.0525 115.388 12.6486 115.576 12.3316C115.765 12.0146 116.02 11.7636 116.341 11.5787C116.661 11.3938 117.02 11.2541 117.416 11.1598C117.812 11.0654 118.216 10.9937 118.628 10.9447C119.148 10.8843 119.571 10.8352 119.896 10.7975C120.22 10.756 120.456 10.6899 120.603 10.5993C120.75 10.5088 120.824 10.3616 120.824 10.1578V10.1181C120.824 9.62374 120.684 9.24067 120.405 8.96894C120.13 8.6972 119.718 8.56134 119.171 8.56134C118.601 8.56134 118.152 8.68777 117.824 8.94063C117.499 9.18972 117.275 9.46711 117.15 9.77281L115.559 9.4105C115.748 8.88213 116.023 8.45567 116.386 8.1311C116.752 7.80275 117.173 7.56499 117.648 7.4178C118.124 7.26684 118.624 7.19136 119.148 7.19136C119.496 7.19136 119.864 7.23287 120.252 7.3159C120.645 7.39516 121.011 7.54234 121.351 7.75747C121.694 7.97259 121.975 8.28017 122.194 8.68022C122.413 9.0765 122.522 9.59166 122.522 10.2257V16H120.869V14.8112H120.801C120.692 15.0301 120.528 15.2452 120.309 15.4565C120.09 15.6679 119.809 15.8434 119.465 15.983C119.122 16.1227 118.711 16.1925 118.231 16.1925ZM118.599 14.8338C119.067 14.8338 119.467 14.7414 119.799 14.5564C120.135 14.3715 120.39 14.13 120.564 13.8318C120.741 13.5299 120.83 13.2072 120.83 12.8638V11.7429C120.769 11.8033 120.652 11.8599 120.479 11.9127C120.309 11.9618 120.115 12.0052 119.896 12.0429C119.677 12.0769 119.464 12.109 119.256 12.1391C119.048 12.1656 118.875 12.1882 118.735 12.2071C118.407 12.2486 118.107 12.3184 117.835 12.4165C117.567 12.5147 117.352 12.6562 117.19 12.8411C117.031 13.0223 116.952 13.2638 116.952 13.5657C116.952 13.9847 117.107 14.3017 117.416 14.5168C117.726 14.7281 118.12 14.8338 118.599 14.8338ZM127.879 7.30458V8.66324H123.13V7.30458H127.879ZM124.404 5.2213H126.096V13.4469C126.096 13.7752 126.145 14.0224 126.243 14.1885C126.342 14.3507 126.468 14.4621 126.623 14.5225C126.781 14.5791 126.953 14.6074 127.138 14.6074C127.274 14.6074 127.393 14.5979 127.494 14.5791C127.596 14.5602 127.676 14.5451 127.732 14.5338L128.038 15.9321C127.94 15.9698 127.8 16.0075 127.619 16.0453C127.438 16.0868 127.211 16.1094 126.94 16.1132C126.494 16.1208 126.079 16.0415 125.694 15.8755C125.309 15.7094 124.998 15.4528 124.76 15.1055C124.522 14.7583 124.404 14.3224 124.404 13.7978V5.2213ZM128.795 16V7.30458H130.488V16H128.795ZM129.65 5.9629C129.356 5.9629 129.103 5.86478 128.892 5.66853C128.684 5.4685 128.58 5.23074 128.58 4.95523C128.58 4.67595 128.684 4.43818 128.892 4.24193C129.103 4.04191 129.356 3.9419 129.65 3.9419C129.945 3.9419 130.196 4.04191 130.403 4.24193C130.614 4.43818 130.72 4.67595 130.72 4.95523C130.72 5.23074 130.614 5.4685 130.403 5.66853C130.196 5.86478 129.945 5.9629 129.65 5.9629ZM135.471 16.1755C134.656 16.1755 133.945 15.9887 133.337 15.615C132.73 15.2414 132.258 14.7187 131.922 14.0469C131.586 13.3751 131.418 12.5901 131.418 11.6919C131.418 10.7899 131.586 10.0011 131.922 9.32558C132.258 8.65003 132.73 8.12544 133.337 7.7518C133.945 7.37817 134.656 7.19136 135.471 7.19136C136.287 7.19136 136.998 7.37817 137.606 7.7518C138.213 8.12544 138.685 8.65003 139.021 9.32558C139.357 10.0011 139.525 10.7899 139.525 11.6919C139.525 12.5901 139.357 13.3751 139.021 14.0469C138.685 14.7187 138.213 15.2414 137.606 15.615C136.998 15.9887 136.287 16.1755 135.471 16.1755ZM135.477 14.7546C136.005 14.7546 136.443 14.6149 136.79 14.3356C137.138 14.0564 137.394 13.6846 137.56 13.2204C137.73 12.7562 137.815 12.2448 137.815 11.6863C137.815 11.1315 137.73 10.622 137.56 10.1578C137.394 9.68978 137.138 9.31426 136.79 9.03121C136.443 8.74815 136.005 8.60663 135.477 8.60663C134.945 8.60663 134.503 8.74815 134.152 9.03121C133.805 9.31426 133.547 9.68978 133.377 10.1578C133.211 10.622 133.128 11.1315 133.128 11.6863C133.128 12.2448 133.211 12.7562 133.377 13.2204C133.547 13.6846 133.805 14.0564 134.152 14.3356C134.503 14.6149 134.945 14.7546 135.477 14.7546ZM142.15 10.8371V16H140.458V7.30458H142.082V8.71985H142.19C142.39 8.25941 142.703 7.88956 143.13 7.61028C143.56 7.331 144.101 7.19136 144.754 7.19136C145.347 7.19136 145.866 7.3159 146.311 7.56499C146.757 7.8103 147.102 8.17639 147.347 8.66324C147.592 9.15009 147.715 9.75205 147.715 10.4691V16H146.022V10.6729C146.022 10.0427 145.858 9.55014 145.53 9.19538C145.202 8.83685 144.751 8.65758 144.177 8.65758C143.784 8.65758 143.435 8.74249 143.13 8.91233C142.828 9.08216 142.588 9.33125 142.411 9.65959C142.237 9.98416 142.15 10.3767 142.15 10.8371ZM155.699 15.2641V7.61028H157.222V15.2641H155.699ZM152.636 12.1958V10.6729H160.29V12.1958H152.636ZM59.5198 20.4061H61.6427L65.3338 29.4185H65.4696L69.1607 20.4061H71.2836V32H69.6192V23.6103H69.5116L66.0924 31.983H64.711L61.2918 23.6046H61.1842V32H59.5198V20.4061ZM76.3972 32.1755C75.582 32.1755 74.8706 31.9887 74.2629 31.615C73.6553 31.2414 73.1836 30.7187 72.8477 30.0469C72.5118 29.3751 72.3438 28.5901 72.3438 27.6919C72.3438 26.7899 72.5118 26.0011 72.8477 25.3256C73.1836 24.65 73.6553 24.1254 74.2629 23.7518C74.8706 23.3782 75.582 23.1914 76.3972 23.1914C77.2124 23.1914 77.9238 23.3782 78.5314 23.7518C79.139 24.1254 79.6108 24.65 79.9467 25.3256C80.2826 26.0011 80.4505 26.7899 80.4505 27.6919C80.4505 28.5901 80.2826 29.3751 79.9467 30.0469C79.6108 30.7187 79.139 31.2414 78.5314 31.615C77.9238 31.9887 77.2124 32.1755 76.3972 32.1755ZM76.4028 30.7546C76.9312 30.7546 77.369 30.6149 77.7162 30.3356C78.0634 30.0564 78.32 29.6846 78.4861 29.2204C78.6559 28.7562 78.7409 28.2448 78.7409 27.6863C78.7409 27.1315 78.6559 26.622 78.4861 26.1578C78.32 25.6898 78.0634 25.3143 77.7162 25.0312C77.369 24.7482 76.9312 24.6066 76.4028 24.6066C75.8707 24.6066 75.4291 24.7482 75.0781 25.0312C74.7309 25.3143 74.4724 25.6898 74.3026 26.1578C74.1365 26.622 74.0535 27.1315 74.0535 27.6863C74.0535 28.2448 74.1365 28.7562 74.3026 29.2204C74.4724 29.6846 74.7309 30.0564 75.0781 30.3356C75.4291 30.6149 75.8707 30.7546 76.4028 30.7546ZM81.5193 32V20.4061H83.2119V24.7142H83.3138C83.4119 24.533 83.5535 24.3236 83.7384 24.0858C83.9233 23.848 84.18 23.6405 84.5083 23.4631C84.8366 23.2819 85.2707 23.1914 85.8104 23.1914C86.5123 23.1914 87.1388 23.3687 87.6898 23.7235C88.2408 24.0783 88.673 24.5896 88.9862 25.2577C89.3032 25.9257 89.4617 26.7295 89.4617 27.6693C89.4617 28.609 89.3051 29.4148 88.9919 30.0866C88.6786 30.7546 88.2484 31.2697 87.7012 31.632C87.1539 31.9906 86.5293 32.1698 85.8273 32.1698C85.299 32.1698 84.8668 32.0811 84.5309 31.9038C84.1988 31.7264 83.9384 31.5188 83.7497 31.281C83.561 31.0433 83.4157 30.8319 83.3138 30.647H83.1723V32H81.5193ZM83.1779 27.6523C83.1779 28.2637 83.2666 28.7996 83.444 29.26C83.6214 29.7205 83.878 30.0809 84.2139 30.3413C84.5498 30.5979 84.9612 30.7263 85.448 30.7263C85.9538 30.7263 86.3765 30.5923 86.7161 30.3243C87.0558 30.0526 87.3124 29.6846 87.486 29.2204C87.6634 28.7562 87.7521 28.2335 87.7521 27.6523C87.7521 27.0786 87.6653 26.5635 87.4917 26.1068C87.3219 25.6502 87.0652 25.2897 86.7218 25.0255C86.3821 24.7614 85.9575 24.6293 85.448 24.6293C84.9574 24.6293 84.5423 24.7557 84.2026 25.0086C83.8667 25.2614 83.612 25.6143 83.4384 26.0672C83.2648 26.5201 83.1779 27.0484 83.1779 27.6523ZM90.406 32V23.3046H92.0986V32H90.406ZM91.2608 21.9629C90.9664 21.9629 90.7135 21.8648 90.5022 21.6685C90.2946 21.4685 90.1908 21.2307 90.1908 20.9552C90.1908 20.676 90.2946 20.4382 90.5022 20.2419C90.7135 20.0419 90.9664 19.9419 91.2608 19.9419C91.5552 19.9419 91.8061 20.0419 92.0137 20.2419C92.2251 20.4382 92.3307 20.676 92.3307 20.9552C92.3307 21.2307 92.2251 21.4685 92.0137 21.6685C91.8061 21.8648 91.5552 21.9629 91.2608 21.9629ZM95.112 20.4061V32H93.4193V20.4061H95.112ZM100.18 32.1755C99.3236 32.1755 98.5857 31.9925 97.9668 31.6264C97.3516 31.2565 96.8761 30.7376 96.5402 30.0696C96.2081 29.3978 96.042 28.6109 96.042 27.7089C96.042 26.8182 96.2081 26.0332 96.5402 25.3539C96.8761 24.6746 97.3441 24.1443 97.9441 23.7631C98.548 23.3819 99.2537 23.1914 100.061 23.1914C100.552 23.1914 101.028 23.2725 101.488 23.4348C101.948 23.5971 102.362 23.8518 102.728 24.199C103.094 24.5462 103.383 24.9972 103.594 25.552C103.805 26.103 103.911 26.7729 103.911 27.5617V28.1618H96.9987V26.8937H102.252C102.252 26.4484 102.162 26.054 101.98 25.7105C101.799 25.3633 101.545 25.0897 101.216 24.8897C100.892 24.6897 100.511 24.5896 100.073 24.5896C99.5972 24.5896 99.182 24.7066 98.8273 24.9406C98.4763 25.1708 98.2046 25.4728 98.0121 25.8464C97.8234 26.2163 97.729 26.6182 97.729 27.0522V28.0429C97.729 28.6241 97.8309 29.1185 98.0347 29.5261C98.2423 29.9337 98.531 30.2451 98.9009 30.4602C99.2707 30.6715 99.7029 30.7772 100.197 30.7772C100.518 30.7772 100.811 30.7319 101.075 30.6413C101.339 30.547 101.567 30.4073 101.76 30.2224C101.952 30.0375 102.099 29.8092 102.201 29.5374L103.803 29.8261C103.675 30.2979 103.445 30.7112 103.113 31.0659C102.784 31.4169 102.371 31.6905 101.873 31.8868C101.379 32.0793 100.814 32.1755 100.18 32.1755ZM65.8433 39.4518C65.7829 38.9159 65.5338 38.5007 65.096 38.2063C64.6582 37.9082 64.1072 37.7591 63.443 37.7591C62.9674 37.7591 62.5561 37.8346 62.2089 37.9855C61.8616 38.1327 61.5918 38.3365 61.3993 38.5969C61.2106 38.8536 61.1163 39.1461 61.1163 39.4744C61.1163 39.7499 61.1804 39.9877 61.3087 40.1877C61.4408 40.3877 61.6126 40.5557 61.8239 40.6915C62.039 40.8236 62.2692 40.935 62.5145 41.0255C62.7599 41.1124 62.9957 41.1841 63.2222 41.2407L64.3544 41.535C64.7243 41.6256 65.1036 41.7483 65.4923 41.903C65.881 42.0578 66.2414 42.2616 66.5735 42.5144C66.9057 42.7673 67.1736 43.0805 67.3774 43.4542C67.585 43.8278 67.6888 44.275 67.6888 44.7958C67.6888 45.4525 67.5189 46.0356 67.1793 46.5451C66.8434 47.0546 66.3546 47.4565 65.7131 47.7509C65.0752 48.0453 64.3035 48.1925 63.3977 48.1925C62.5296 48.1925 61.7786 48.0547 61.1446 47.7792C60.5105 47.5037 60.0142 47.1131 59.6557 46.6074C59.2972 46.0979 59.099 45.494 59.0613 44.7958H60.8162C60.8502 45.2147 60.9861 45.5638 61.2238 45.8431C61.4654 46.1186 61.7729 46.3243 62.1466 46.4602C62.524 46.5923 62.9372 46.6583 63.3864 46.6583C63.8808 46.6583 64.3204 46.581 64.7054 46.4262C65.0941 46.2677 65.3998 46.0488 65.6225 45.7695C65.8452 45.4865 65.9565 45.1563 65.9565 44.7788C65.9565 44.4354 65.8584 44.1542 65.6621 43.9353C65.4696 43.7164 65.2073 43.5353 64.8752 43.3919C64.5469 43.2485 64.1751 43.122 63.76 43.0126L62.39 42.639C61.4616 42.3861 60.7256 42.0143 60.1822 41.5237C59.6425 41.0331 59.3726 40.384 59.3726 39.5763C59.3726 38.9083 59.5538 38.3252 59.9161 37.827C60.2784 37.3289 60.769 36.942 61.388 36.6665C62.0069 36.3872 62.7051 36.2476 63.4826 36.2476C64.2676 36.2476 64.9601 36.3853 65.5602 36.6609C66.1641 36.9364 66.6396 37.3157 66.9868 37.7987C67.334 38.278 67.5152 38.829 67.5303 39.4518H65.8433ZM72.3495 48.1755C71.5343 48.1755 70.8229 47.9887 70.2153 47.615C69.6076 47.2414 69.1359 46.7187 68.8 46.0469C68.4641 45.3751 68.2962 44.5901 68.2962 43.6919C68.2962 42.7899 68.4641 42.0011 68.8 41.3256C69.1359 40.65 69.6076 40.1254 70.2153 39.7518C70.8229 39.3782 71.5343 39.1914 72.3495 39.1914C73.1647 39.1914 73.8761 39.3782 74.4837 39.7518C75.0913 40.1254 75.5631 40.65 75.899 41.3256C76.2349 42.0011 76.4028 42.7899 76.4028 43.6919C76.4028 44.5901 76.2349 45.3751 75.899 46.0469C75.5631 46.7187 75.0913 47.2414 74.4837 47.615C73.8761 47.9887 73.1647 48.1755 72.3495 48.1755ZM72.3552 46.7546C72.8835 46.7546 73.3213 46.6149 73.6685 46.3356C74.0157 46.0564 74.2724 45.6846 74.4384 45.2204C74.6083 44.7562 74.6932 44.2448 74.6932 43.6863C74.6932 43.1315 74.6083 42.622 74.4384 42.1578C74.2724 41.6898 74.0157 41.3143 73.6685 41.0312C73.3213 40.7482 72.8835 40.6066 72.3552 40.6066C71.823 40.6066 71.3814 40.7482 71.0305 41.0312C70.6832 41.3143 70.4247 41.6898 70.2549 42.1578C70.0888 42.622 70.0058 43.1315 70.0058 43.6863C70.0058 44.2448 70.0888 44.7562 70.2549 45.2204C70.4247 45.6846 70.6832 46.0564 71.0305 46.3356C71.3814 46.6149 71.823 46.7546 72.3552 46.7546ZM79.0284 36.4061V48H77.3357V36.4061H79.0284ZM85.8573 44.3939V39.3046H87.5556V48H85.8912V46.4942H85.8007C85.6006 46.9584 85.2799 47.3452 84.8383 47.6547C84.4005 47.9604 83.8551 48.1132 83.2022 48.1132C82.6437 48.1132 82.1493 47.9906 81.719 47.7453C81.2926 47.4962 80.9567 47.1282 80.7114 46.6413C80.4698 46.1545 80.349 45.5525 80.349 44.8355V39.3046H82.0417V44.6317C82.0417 45.2242 82.2059 45.6959 82.5342 46.0469C82.8626 46.3979 83.289 46.5734 83.8136 46.5734C84.1307 46.5734 84.4458 46.4942 84.759 46.3356C85.0761 46.1771 85.3383 45.9375 85.5459 45.6167C85.7573 45.2959 85.8611 44.8883 85.8573 44.3939ZM92.9324 39.3046V40.6632H88.1828V39.3046H92.9324ZM89.4565 37.2213H91.1492V45.4469C91.1492 45.7752 91.1983 46.0224 91.2964 46.1885C91.3945 46.3507 91.5209 46.4621 91.6757 46.5225C91.8342 46.5791 92.0059 46.6074 92.1908 46.6074C92.3267 46.6074 92.4456 46.5979 92.5475 46.5791C92.6494 46.5602 92.7286 46.5451 92.7853 46.5338L93.091 47.9321C92.9928 47.9698 92.8532 48.0075 92.672 48.0453C92.4909 48.0868 92.2644 48.1094 91.9927 48.1132C91.5474 48.1208 91.1322 48.0415 90.7473 47.8755C90.3623 47.7094 90.051 47.4528 89.8132 47.1055C89.5754 46.7583 89.4565 46.3224 89.4565 45.7978V37.2213ZM93.8483 48V39.3046H95.541V48H93.8483ZM94.7032 37.9629C94.4088 37.9629 94.1559 37.8648 93.9446 37.6685C93.737 37.4685 93.6332 37.2307 93.6332 36.9552C93.6332 36.676 93.737 36.4382 93.9446 36.2419C94.1559 36.0419 94.4088 35.9419 94.7032 35.9419C94.9975 35.9419 95.2485 36.0419 95.4561 36.2419C95.6674 36.4382 95.7731 36.676 95.7731 36.9552C95.7731 37.2307 95.6674 37.4685 95.4561 37.6685C95.2485 37.8648 94.9975 37.9629 94.7032 37.9629ZM100.524 48.1755C99.7092 48.1755 98.9978 47.9887 98.3902 47.615C97.7826 47.2414 97.3108 46.7187 96.9749 46.0469C96.639 45.3751 96.4711 44.5901 96.4711 43.6919C96.4711 42.7899 96.639 42.0011 96.9749 41.3256C97.3108 40.65 97.7826 40.1254 98.3902 39.7518C98.9978 39.3782 99.7092 39.1914 100.524 39.1914C101.34 39.1914 102.051 39.3782 102.659 39.7518C103.266 40.1254 103.738 40.65 104.074 41.3256C104.41 42.0011 104.578 42.7899 104.578 43.6919C104.578 44.5901 104.41 45.3751 104.074 46.0469C103.738 46.7187 103.266 47.2414 102.659 47.615C102.051 47.9887 101.34 48.1755 100.524 48.1755ZM100.53 46.7546C101.058 46.7546 101.496 46.6149 101.843 46.3356C102.191 46.0564 102.447 45.6846 102.613 45.2204C102.783 44.7562 102.868 44.2448 102.868 43.6863C102.868 43.1315 102.783 42.622 102.613 42.1578C102.447 41.6898 102.191 41.3143 101.843 41.0312C101.496 40.7482 101.058 40.6066 100.53 40.6066C99.9979 40.6066 99.5564 40.7482 99.2054 41.0312C98.8582 41.3143 98.5996 41.6898 98.4298 42.1578C98.2637 42.622 98.1807 43.1315 98.1807 43.6863C98.1807 44.2448 98.2637 44.7562 98.4298 45.2204C98.5996 45.6846 98.8582 46.0564 99.2054 46.3356C99.5564 46.6149 99.9979 46.7546 100.53 46.7546ZM107.203 42.8371V48H105.511V39.3046H107.135V40.7198H107.243C107.443 40.2594 107.756 39.8896 108.183 39.6103C108.613 39.331 109.154 39.1914 109.807 39.1914C110.4 39.1914 110.919 39.3159 111.364 39.565C111.81 39.8103 112.155 40.1764 112.4 40.6632C112.645 41.1501 112.768 41.7521 112.768 42.4691V48H111.075V42.6729C111.075 42.0427 110.911 41.5501 110.583 41.1954C110.255 40.8368 109.804 40.6576 109.23 40.6576C108.837 40.6576 108.488 40.7425 108.183 40.9123C107.881 41.0822 107.641 41.3312 107.464 41.6596C107.29 41.9842 107.203 42.3767 107.203 42.8371Z" fill="white"/>
<ellipse cx="37.9147" cy="14" rx="11.9716" ry="12" stroke="#B3193E" stroke-width="3"/>
<path d="M25.9431 2C25.9431 8 20.9549 14 13.9715 14C20.9549 14 25.9431 20 25.9431 26L13.9715 26C7.98571 26 1.99991 21 1.99991 14C1.99991 7 7.98571 2 13.9715 2L25.9431 2Z" stroke="#B3193E" stroke-width="3"/>
<path d="M2 50V26C7.9858 26 13.9716 31 13.9716 38C13.9716 31 19.9574 26 25.9432 26V50H2Z" stroke="#FF6900" stroke-width="3"/>
<ellipse cx="37.9147" cy="38" rx="11.9716" ry="12" stroke="#FF6900" stroke-width="3"/>
</svg>
